<svg width="358" height="190" viewBox="0 0 358 190" fill="none" xmlns="http://www.w3.org/2000/svg">
<path d="M101.458 113.597C100.672 114.641 98.6938 117.158 99.103 118.657C99.6111 120.501 102.019 120.026 103.407 119.934C106.391 119.733 109.275 119.263 112.234 118.995C115.193 118.727 118.223 118.279 121.244 118.094C123.984 117.893 127.599 116.843 129.705 118.991C130.664 120.017 131.53 121.125 132.293 122.304C130.644 125.003 128.813 128.566 131.242 131.128C134.14 134.203 138.001 133.076 141.544 132.038C149.283 138.788 158.27 143.957 167.996 147.254L168.569 147.437C167.187 148.205 166.132 149.449 165.599 150.938C165.421 152.259 166.523 152.748 167.185 153.617C167.847 154.485 168.006 156.093 169.053 156.802C170.619 157.837 173.179 157.075 175.283 156.24C175.72 157.678 176.571 158.956 177.731 159.912C178.925 160.688 179.996 160.118 181.119 159.483C182.677 158.566 184.068 157.392 185.234 156.012C185.948 155.224 186.714 154.493 187.438 153.732C187.67 153.492 187.956 153.033 188.278 152.667C192.847 153.572 197.474 154.158 202.124 154.42C207.518 154.822 212.941 154.591 218.281 153.731C220.587 153.273 222.85 152.619 225.045 151.775C227.02 151.202 228.908 150.36 230.655 149.274C231.774 148.425 231.818 147.644 231.365 146.437C230.56 144.291 229.616 142.182 228.709 140.089C226.6 134.906 224.166 129.86 221.422 124.983C218.651 120.338 215.19 116.143 211.156 112.54C210.15 110.959 209.09 109.398 207.878 107.879C205.309 104.497 202.363 101.334 199.614 98.0811C197.229 95.2237 194.608 92.5732 191.777 90.1577C190.841 89.3764 189.604 87.9128 188.261 88.0034C186.918 88.094 187.03 88.8015 186.261 89.442C184.854 90.6274 181.945 88.3372 180.57 87.6901C179.117 86.9188 177.558 86.3641 175.944 86.0439C174.624 85.815 173.266 85.9885 172.046 86.5419C171.147 87.0747 170.139 87.3962 169.098 87.4819C168.057 87.5676 167.009 87.4154 166.036 87.0368C163.438 86.1902 161.373 85.0066 159.193 87.1091C158.521 87.8496 157.677 88.4123 156.734 88.747C155.792 89.0817 154.781 89.178 153.793 89.0274C152.606 88.8969 151.406 89.1081 150.334 89.6361C148.941 90.4493 148.155 91.9834 146.671 92.6776C145.642 92.9662 144.648 93.3648 143.705 93.8664C143.38 94.1342 143.134 94.4859 142.994 94.8835C142.855 95.281 142.827 95.7092 142.914 96.1215C141.338 96.529 139.763 96.9817 138.209 97.4881L134.06 98.6619C127.953 100.371 123.737 94.5931 120.009 90.7739C118.279 88.975 116.581 87.1794 115.035 85.2195C113.665 83.4843 112.895 81.4321 111.534 79.6784C111.376 79.5008 111.164 79.3791 110.931 79.3314C110.698 79.2837 110.456 79.3125 110.241 79.4136C107.179 80.7147 109.933 89.8103 110.417 92.1223C111.159 95.2408 112.151 98.2955 112.857 101.443C113.671 105.039 109.462 106.586 107.056 108.453C104.977 109.92 103.096 111.649 101.458 113.597ZM156.652 93.5088C154.581 93.7805 152.517 94.1109 150.432 94.4647C148.72 94.7549 147.01 95.0902 145.328 95.4608C145.328 95.394 145.34 95.3277 145.362 95.2647C145.91 95.2828 146.458 95.2167 146.986 95.0685C148.313 94.487 149.498 93.625 150.46 92.5417C151.006 91.978 151.7 91.5799 152.462 91.3931C153.898 91.9956 155.285 92.708 156.612 93.5239L156.652 93.5088ZM159.284 90.0432C161.234 90.8367 163.089 91.8443 164.817 93.0475C162.486 92.9917 160.154 93.0994 157.839 93.3696C156.868 92.5635 155.855 91.8097 154.804 91.1113C156.357 91.2305 157.909 90.8624 159.244 90.0583L159.284 90.0432ZM166.741 89.0822C170.02 90.8254 173.208 92.7347 176.292 94.8025C173.181 94.0187 170.014 93.4723 166.82 93.1681L165.975 93.1178C164.629 91.929 163.198 90.8397 161.693 89.8587C161.216 89.5401 160.716 89.2571 160.198 89.0121C160.341 88.7796 160.522 88.5723 160.732 88.3984C162.305 87.166 163.992 88.2776 165.45 88.7402C165.828 88.8895 166.267 89.0001 166.755 89.0772L166.741 89.0822ZM182.391 94.6262C183.867 95.7864 185.312 96.9884 186.789 98.1939C183.883 97.0356 180.915 96.0394 177.898 95.2098C175.652 92.885 173.094 90.8837 170.298 89.2632C171.505 89.0552 172.533 88.6545 173.656 88.5086C173.663 88.6009 173.696 88.6892 173.751 88.7634C176.635 90.7417 179.586 92.4501 182.351 94.6413L182.391 94.6262ZM192.964 98.586C194.956 100.348 196.891 102.162 198.896 103.919L198.433 103.664C195.28 101.986 192.02 100.393 188.659 98.9768C186.685 97.1007 184.742 95.1827 182.614 93.4257C180.903 91.8256 179.066 90.3657 177.121 89.06C178.638 89.6545 180.121 90.3289 181.566 91.0802C182.663 91.7068 183.839 92.1817 185.064 92.4918C187.686 94.507 190.421 96.3729 192.924 98.6011L192.964 98.586ZM206.964 109.032C204.975 107.559 202.902 106.201 200.757 104.965C198.071 102.209 195.559 99.2649 192.667 96.6931C191.091 95.3059 189.435 94.0111 187.709 92.8152C187.463 92.6476 187.22 92.4481 186.977 92.2486L187.312 92.1228C187.776 91.811 188.169 90.6541 188.541 90.5451C188.913 90.4361 190.278 91.9131 190.474 92.0691C191.596 92.9794 192.59 93.9988 193.646 94.9795C195.3 96.532 196.889 98.0778 198.415 99.7393C201.196 102.75 204.193 105.681 206.785 108.84C206.835 108.906 206.882 108.976 206.924 109.048L206.964 109.032ZM176.913 155.568L177.583 155.316C179.474 154.607 181.382 153.983 183.243 153.194C184.019 152.855 184.774 152.47 185.503 152.04L186.865 152.325C185.691 153.169 184.599 154.122 183.602 155.17C182.625 156.072 181.044 157.813 179.632 158.006C178.22 158.198 177.649 156.592 176.872 155.583L176.913 155.568ZM168.559 149.98C169.259 149.278 170.09 148.722 171.006 148.344L171.18 148.278C175.33 149.552 179.53 150.716 183.763 151.683C180.45 152.803 177.174 154.062 173.797 154.931C172.294 155.327 170.674 155.781 169.614 154.343C169.214 153.804 168.897 153.082 168.526 152.502C167.773 151.392 167.597 151.045 168.504 149.955L168.559 149.98ZM132.478 126.794C132.81 125.966 133.241 125.116 133.677 124.279C134.016 124.748 134.379 125.199 134.765 125.63C136.529 127.527 138.39 129.332 140.341 131.035L139.409 131.201C137.785 131.592 136.087 131.56 134.478 131.108C134.019 131.019 133.588 130.823 133.219 130.537C132.849 130.25 132.553 129.881 132.353 129.458C132.153 129.036 132.055 128.572 132.067 128.105C132.079 127.638 132.201 127.18 132.423 126.769L132.478 126.794ZM102.304 117.441C102.79 116.739 103.172 115.677 103.598 115.059C104.078 114.407 104.612 113.798 105.194 113.236C106.741 113.528 108.611 113.209 110.108 113.367C112.779 113.635 115.455 113.06 118.089 113.433C118.59 113.506 118.754 112.679 118.27 112.57C115.755 111.983 113.158 112.116 110.616 111.784C109.491 111.64 108.401 111.467 107.293 111.409L109.112 109.977C109.605 109.578 110.145 109.222 110.685 108.867C110.837 108.938 111.01 108.949 111.171 108.898C111.238 108.873 112.618 109.167 112.809 109.187C113.751 109.292 114.645 109.554 115.565 109.683C116.984 109.916 119.628 109.46 120.827 110.372C121.117 110.615 121.524 110.11 121.257 109.889C120.154 108.865 118.057 108.902 116.657 108.555C115.316 108.138 113.943 107.834 112.552 107.646C113.207 107.215 113.823 106.728 114.393 106.191C114.685 105.917 114.939 105.606 115.148 105.265C115.709 105.376 116.283 105.436 116.796 105.58C118.814 106.065 120.762 106.804 122.594 107.781C122.646 107.811 122.708 107.821 122.767 107.808C122.826 107.794 122.878 107.76 122.913 107.711C122.948 107.661 122.963 107.601 122.956 107.541C122.949 107.48 122.919 107.425 122.874 107.386C121.266 106.055 119.433 105.022 117.461 104.336C116.888 104.09 116.299 103.881 115.697 103.713C115.747 103.21 115.727 102.702 115.637 102.205C115.456 101.11 115.203 100.027 114.95 98.9443C115.667 99.4707 116.445 99.9133 117.154 100.458C118.799 101.61 120.348 102.891 121.789 104.289C121.861 104.374 121.964 104.426 122.075 104.435C122.185 104.443 122.295 104.407 122.38 104.335C122.464 104.263 122.516 104.16 122.525 104.049C122.534 103.938 122.498 103.829 122.426 103.744C121.126 102.247 119.682 100.883 118.113 99.6701C117.255 98.8516 116.326 98.1094 115.339 97.4521C115.112 97.3381 114.631 97.0749 114.468 97.09C114.229 96.2466 113.997 95.3849 113.757 94.5415C113.518 93.6982 113.186 92.4458 112.947 91.4029C113.129 91.5186 113.323 91.6293 113.533 91.7802C114.594 92.6994 115.583 93.6993 116.49 94.7711C118.108 96.5146 119.926 98.0615 121.906 99.38C122.045 99.4655 122.214 99.2642 122.102 99.1687C118.985 96.2833 116.871 91.8286 112.957 89.8386C112.846 89.7838 112.721 89.7617 112.597 89.775C112.476 89.2083 112.364 88.6231 112.257 88.0514C112.149 87.4797 111.596 84.7804 111.348 82.9763C112.201 84.4556 113.149 85.8786 114.185 87.2365C115.972 89.3506 117.925 91.2955 119.734 93.3861C122.759 96.8415 126.002 100.674 130.95 101.343C133.478 101.68 136.092 100.409 138.424 99.6107C141.043 98.7203 143.668 98.011 146.359 97.3537C146.869 97.1625 147.429 97.1055 147.987 97.0032L151.511 96.4465C153.958 96.1563 156.875 96.5921 159.234 96.0287C160.817 95.5245 162.49 95.3666 164.14 95.5658C165.846 95.7518 167.597 95.6461 169.342 95.8942C175.324 96.9059 181.163 98.6298 186.736 101.029C192.628 103.278 198.267 106.142 203.557 109.576C212.167 115.358 218.074 123.439 222.702 132.597C224.952 137.046 226.853 141.749 228.71 146.454C228.732 146.532 228.761 146.608 228.795 146.682C227.766 146.361 226.683 146.247 225.609 146.346C223.192 146.459 220.77 146.443 218.355 146.298C213.46 146.01 208.596 145.321 203.813 144.24C202.849 144.035 202.313 145.46 203.302 145.732C205.376 146.285 207.378 146.973 209.479 147.393C212.057 147.809 214.659 148.07 217.268 148.174C220.757 148.59 224.288 148.453 227.734 147.768L226.22 148.504C224.183 149.401 222.075 150.125 219.918 150.669C211.96 152.705 203.118 152.38 194.797 151.079C194.695 150.086 194.496 149.105 194.203 148.15C193.891 146.472 193.734 144.77 193.734 143.063C193.655 139.81 194.061 136.564 194.94 133.431C195.898 130.29 197.584 127.419 199.861 125.053C201.782 123.2 204.029 122.541 206.334 121.386C206.37 121.36 206.396 121.323 206.409 121.281C206.421 121.239 206.42 121.194 206.404 121.153C206.389 121.112 206.36 121.077 206.323 121.053C206.286 121.03 206.242 121.02 206.198 121.024C203.56 121.361 201.059 122.394 198.952 124.017C196.605 126.184 194.737 128.818 193.468 131.749L193.255 132.242C189.255 127.751 185.024 123.471 180.581 119.417C178.167 117.262 175.701 115.051 173.206 112.927C171.244 111.245 168.934 108.838 166.336 108.236C166.173 108.206 166.004 108.219 165.847 108.275C165.69 108.331 165.55 108.428 165.443 108.555C165.335 108.683 165.263 108.836 165.234 109C165.205 109.165 165.22 109.333 165.277 109.49C165.78 110.831 166.248 112.079 166.731 113.366C167.214 114.654 167.339 115.601 165.809 116.619C165.482 116.849 164.992 116.849 164.653 117.129C164.247 117.456 163.965 117.913 163.854 118.423C163.477 119.987 164.536 121.059 163.916 122.668C163.093 124.798 161.638 125.527 162.66 127.928C163.524 129.945 164.263 130.937 163.521 133.281C163.162 134.045 163.019 134.892 163.108 135.731C163.47 137.308 165.186 138.088 166.532 138.7C169.522 139.865 172.648 140.646 175.834 141.025C178.88 141.631 181.967 142.007 185.069 142.151C186.606 142.171 188.073 142.004 189.596 141.984C190.144 141.977 190.68 142.02 191.21 142.005C191.187 144.884 191.499 147.755 192.139 150.561L188.724 150.021C178.532 148.015 167.875 145.341 158.681 140.405C149.87 135.678 141.139 129.573 134.912 121.658C133.395 119.734 132.246 117.365 130.343 115.799C128.926 114.632 127.746 114.952 125.987 115.076C121.204 115.417 116.462 116.032 111.688 116.477C108.923 116.733 106.17 117.184 103.398 117.382C103.268 117.401 102.691 117.372 102.238 117.389L102.304 117.441ZM179.849 136.842C181.591 137.937 183.514 138.714 185.528 139.133C187.42 139.633 189.386 139.792 191.334 139.603L191.242 140.418C190.379 140.481 189.425 140.304 188.586 140.312C187.064 140.332 185.647 140.389 184.175 140.299C181.228 140.066 178.295 139.68 175.388 139.142C172.524 138.686 168.762 138.445 166.388 136.52C164.351 134.882 166.368 132.061 165.698 129.787C165.351 128.862 164.662 128.003 164.441 127.046C164.08 125.513 165.095 125.118 165.653 123.914C165.956 123.194 166.057 122.405 165.945 121.632C165.904 121.158 165.686 120.658 165.67 120.205C165.599 118.916 166.213 118.594 166.986 118.044C168.191 117.179 168.936 117.083 168.884 115.313C168.749 113.967 168.382 112.656 167.797 111.436C168.421 111.998 169.023 112.583 169.566 113.053C170.807 114.117 172.074 115.172 173.315 116.236C175.89 118.453 178.414 120.735 180.942 123.03C183.259 125.129 185.576 127.228 187.909 129.367C189.309 130.922 190.907 132.287 192.66 133.429C192.488 133.907 192.342 134.375 192.206 134.87C190.095 133.565 188.165 132.009 186.049 130.692C183.247 128.919 180.546 126.989 177.961 124.913C177.83 124.809 177.653 125.028 177.765 125.124C180.058 127.355 182.516 129.409 185.119 131.27C186.421 132.174 187.681 133.124 188.967 134.065C189.988 134.591 190.978 135.175 191.933 135.814L191.894 135.996C190.584 135.783 189.307 135.397 188.098 134.85C186.901 134.35 185.65 134.238 184.441 133.666C181.85 132.621 179.203 131.719 176.513 130.964C176.408 130.928 176.293 130.935 176.194 130.984C176.095 131.033 176.019 131.119 175.983 131.224C175.947 131.328 175.954 131.443 176.003 131.542C176.052 131.642 176.138 131.718 176.243 131.753C179.053 132.841 181.776 134.268 184.628 135.264C186.882 136.204 189.228 136.909 191.628 137.366C191.552 137.777 191.509 138.191 191.452 138.61C190.036 137.733 187.486 138.277 185.914 138.04C183.83 137.824 181.781 137.349 179.814 136.625C179.757 136.555 179.7 136.729 179.784 136.79L179.849 136.842Z" fill="url(#paint0_linear_811_171)"/>
<path d="M316.821 40.1357C316.031 42.5557 315.281 44.9957 314.441 47.4057C312.791 52.1657 310.761 56.8657 308.731 61.4857C306.921 65.5957 304.491 69.4857 302.371 73.4857C301.811 74.5457 300.571 75.8857 301.151 77.1457C301.461 77.8357 302.401 78.4357 302.931 78.9357C303.641 79.5957 304.371 80.2257 305.081 80.8857C306.761 82.4257 308.341 84.0757 310.081 85.6057C311.231 86.6057 312.371 88.2857 313.741 89.0457C315.111 89.8057 317.471 89.4057 318.991 89.4657C320.511 89.5257 322.211 89.4657 323.821 89.4657H323.921H324.921C326.391 89.4657 328.921 89.7457 330.241 89.0057C331.561 88.2657 332.241 86.5357 333.021 85.4257C335.641 81.5857 338.331 77.9357 341.271 74.3357C344.021 70.9757 346.451 67.3357 349.061 63.9057C350.441 62.0857 351.841 60.2957 353.271 58.5157C354.271 57.3157 355.841 55.8857 356.271 54.3557C356.305 54.2264 356.304 54.0902 356.267 53.9617C356.23 53.8331 356.159 53.717 356.061 53.6257L355.991 53.5757C356.701 52.7857 357.09 51.7582 357.081 50.6957C357.094 50.1839 356.985 49.6763 356.762 49.2153C356.54 48.7544 356.21 48.3533 355.801 48.0457C356.741 47.0457 356.801 44.8757 356.431 43.8057C355.979 42.7766 355.203 41.9233 354.221 41.3757C353.775 41.1106 353.257 40.995 352.741 41.0457C353.018 40.3898 353.127 39.6752 353.059 38.9664C352.991 38.2576 352.748 37.5769 352.351 36.9857C351.671 36.1757 349.261 35.1357 347.881 35.5557C348.079 34.9004 348.115 34.2069 347.986 33.5345C347.858 32.8622 347.567 32.2312 347.141 31.6957C346.051 30.2557 344.041 30.6957 342.711 31.6957C342.825 30.9823 342.716 30.2509 342.397 29.6025C342.078 28.954 341.566 28.4206 340.931 28.0757C340.491 27.8929 340.01 27.8299 339.537 27.8931C339.065 27.9564 338.618 28.1436 338.241 28.4357C338.02 28.6095 337.842 28.8319 337.721 29.0857C337.635 28.7635 337.47 28.4679 337.241 28.2257C337.076 28.0298 336.873 27.8693 336.645 27.7542C336.416 27.639 336.166 27.5715 335.911 27.5557C335.419 27.5276 334.932 27.6688 334.531 27.9557C334.473 27.9949 334.426 28.049 334.396 28.1123C334.367 28.1757 334.354 28.2459 334.361 28.3157C334.074 28.2196 333.768 28.1989 333.471 28.2557C333.102 28.3884 332.762 28.5922 332.471 28.8557C331.701 27.5457 330.831 26.4857 329.121 27.2657C328.522 27.4624 328.025 27.8888 327.74 28.4512C327.455 29.0137 327.405 29.6663 327.601 30.2657C327.085 30.3404 326.602 30.565 326.213 30.9117C325.824 31.2584 325.545 31.7118 325.411 32.2157C324.231 31.4757 322.731 30.8357 321.701 32.0857C320.671 33.3357 320.961 35.3757 321.701 36.6157C321.522 36.9048 321.406 37.2286 321.361 37.5657C320.917 37.0629 320.428 36.601 319.901 36.1857C319.777 36.0767 319.622 36.0079 319.458 35.9883C319.294 35.9687 319.127 35.9991 318.981 36.0757C317.531 36.5957 317.211 38.9157 316.821 40.1357ZM325.451 34.1357C325.147 34.3471 324.91 34.6424 324.771 34.9857C324.61 35.3746 324.549 35.7971 324.591 36.2157L324.501 36.1557C324.195 35.9596 323.856 35.8207 323.501 35.7457C323.24 35.6957 322.972 35.6957 322.711 35.7457C322.591 35.4157 322.421 35.0957 322.351 34.8657C322.141 34.0857 321.851 32.6357 322.891 32.2357C323.29 32.1168 323.713 32.0984 324.121 32.1821C324.529 32.2659 324.911 32.4491 325.231 32.7157C325.17 33.2003 325.246 33.6923 325.451 34.1357ZM334.631 51.5457C334.707 50.7473 334.924 49.9686 335.271 49.2457C336.171 47.7257 338.051 48.3357 338.021 50.1557C338.026 50.2592 338.07 50.357 338.144 50.4294C338.218 50.5017 338.317 50.5433 338.421 50.5457C338.589 50.5465 338.756 50.5297 338.921 50.4957C339.214 50.2838 339.568 50.174 339.929 50.183C340.291 50.192 340.639 50.3195 340.921 50.5457L341.451 51.6057C341.522 52.3319 341.423 53.0647 341.161 53.7457C340.161 53.6457 339.211 53.5457 338.231 53.5057C337.251 53.4657 336.231 53.6457 335.431 53.0657C335.013 52.7227 334.646 52.322 334.341 51.8757C334.414 51.8518 334.48 51.8086 334.531 51.7505C334.582 51.6925 334.617 51.6217 334.631 51.5457ZM347.521 50.4257C347.451 50.0647 347.31 49.7213 347.106 49.4156C346.901 49.1099 346.638 48.8481 346.331 48.6457C346.114 48.5181 345.875 48.4348 345.626 48.4005C345.377 48.3661 345.124 48.3815 344.881 48.4457C345.096 48.1374 345.232 47.7811 345.277 47.408C345.322 47.035 345.276 46.6565 345.141 46.3057C345.47 45.9258 345.923 45.6757 346.42 45.6003C346.916 45.5248 347.424 45.6291 347.85 45.8942C348.277 46.1594 348.595 46.5681 348.747 47.0468C348.899 47.5255 348.876 48.0428 348.681 48.5057C348.644 48.6634 348.671 48.829 348.755 48.9673C348.839 49.1056 348.974 49.2055 349.131 49.2457C351.881 49.6157 352.011 52.0357 349.961 53.2457H349.471C348.471 53.3157 347.551 53.4257 346.581 53.5457C346.992 53.1497 347.294 52.6549 347.459 52.1085C347.623 51.5622 347.645 50.9827 347.521 50.4257ZM345.121 53.7557L343.811 53.8957H343.111H342.471C342.732 53.2389 342.828 52.5282 342.751 51.8257C342.491 50.2157 341.631 49.4457 340.521 49.3257C340.671 48.4257 340.411 47.5157 341.181 46.6657C341.468 46.3452 341.842 46.1151 342.257 46.0032C342.673 45.8914 343.112 45.9027 343.521 46.0357L344.301 47.8357C344.301 48.1857 343.921 48.5557 343.841 48.9157C343.827 48.9765 343.828 49.0397 343.842 49.1003C343.856 49.161 343.884 49.2176 343.924 49.2658C343.963 49.314 344.013 49.3525 344.07 49.3785C344.127 49.4045 344.189 49.4172 344.251 49.4157C344.851 49.4157 345.751 49.2157 346.151 49.6957C346.587 50.2921 346.78 51.0322 346.691 51.7657C346.397 52.5817 345.846 53.2801 345.121 53.7557ZM344.491 45.4457C344.059 45.0533 343.512 44.8119 342.931 44.7578C342.35 44.7037 341.768 44.8398 341.271 45.1457C341.259 44.6568 341.143 44.1762 340.931 43.7357C340.818 43.4588 340.647 43.2092 340.43 43.0039C340.213 42.7986 339.954 42.6424 339.671 42.5457C339.497 42.5111 339.319 42.5137 339.146 42.5534C338.974 42.593 338.812 42.6688 338.671 42.7757C338.463 42.2561 338.172 41.7733 337.811 41.3457C337.951 41.1057 337.811 41.0457 338.031 40.4657C338.105 40.1467 338.257 39.8509 338.473 39.6043C338.688 39.3576 338.961 39.1677 339.267 39.0512C339.573 38.9346 339.903 38.8951 340.228 38.936C340.553 38.9769 340.863 39.097 341.131 39.2857C341.801 39.7757 341.661 40.8357 342.271 41.2857C342.661 41.5757 342.951 41.2857 343.351 41.2357C346.031 40.9257 346.351 42.5957 345.911 44.4557C345.368 44.6717 344.881 45.0106 344.491 45.4457ZM336.231 47.4457C336.331 47.0269 336.345 46.5923 336.273 46.1679C336.2 45.7434 336.043 45.338 335.811 44.9757C335.657 44.7497 335.46 44.5561 335.231 44.4057C335.326 43.9692 335.36 43.5215 335.331 43.0757C335.401 41.9757 336.331 41.2357 337.391 42.2857C337.657 42.6729 337.847 43.1073 337.951 43.5657C337.988 43.6881 338.072 43.7912 338.184 43.8529C338.296 43.9146 338.428 43.9299 338.551 43.8957C339.151 43.7557 339.381 43.0657 340.211 44.1757C340.494 44.6372 340.627 45.1754 340.591 45.7157C340.143 46.2142 339.799 46.7978 339.581 47.4317C339.363 48.0656 339.274 48.7369 339.321 49.4057C339.128 49.4523 338.938 49.5123 338.751 49.5857C338.74 49.2775 338.666 48.9747 338.534 48.6963C338.401 48.4178 338.213 48.1696 337.98 47.9671C337.747 47.7645 337.476 47.6119 337.182 47.5188C336.888 47.4257 336.578 47.394 336.271 47.4257L336.231 47.4457ZM333.621 51.0357C332.291 49.4057 330.901 47.8657 329.481 46.3357C329.529 46.2665 329.561 46.1876 329.575 46.1047C329.589 46.0217 329.584 45.9366 329.561 45.8557C329.229 44.9559 329.261 43.962 329.651 43.0857C330.271 41.9557 331.401 42.0857 332.141 43.0857C332.671 43.8157 332.511 45.0857 333.291 45.5257C333.361 45.5701 333.443 45.5937 333.526 45.5937C333.609 45.5937 333.691 45.5701 333.761 45.5257C334.681 44.9757 335.621 46.6657 335.321 47.6857C334.698 47.9671 334.191 48.4525 333.882 49.0617C333.573 49.6708 333.481 50.3672 333.621 51.0357ZM329.511 41.2857H329.451C329.451 40.4357 328.961 39.6557 329.141 38.7857C329.313 38.2104 329.642 37.6944 330.091 37.2957C330.342 37.1303 330.642 37.0561 330.941 37.0857C331.02 37.1391 331.116 37.1638 331.211 37.1557C331.681 37.3857 331.981 37.9857 332.291 38.4257C332.601 38.8657 332.651 38.9357 333.111 39.0157C333.385 39.016 333.659 38.9959 333.931 38.9557L334.931 40.0957C335.075 40.4088 335.143 40.7513 335.131 41.0957C334.72 41.4904 334.421 41.9873 334.264 42.5354C334.108 43.0836 334.1 43.6634 334.241 44.2157C334.123 44.2441 333.999 44.2441 333.881 44.2157H333.791C333.78 44.1558 333.752 44.1003 333.711 44.0557C333.501 43.7857 333.461 43.1157 333.301 42.7857C332.541 41.3757 331.071 40.3257 329.511 41.2657V41.2857ZM327.931 44.6857L326.771 43.4757C325.931 42.5857 325.091 41.7057 324.261 40.8057C324.271 40.751 324.293 40.699 324.324 40.6526C324.355 40.6062 324.394 40.5665 324.441 40.5357C324.721 40.3757 324.851 40.6357 325.131 40.6757C325.253 40.7091 325.383 40.7029 325.502 40.658C325.62 40.6131 325.721 40.5318 325.791 40.4257C325.931 40.2657 325.931 39.9757 326.071 39.8257C326.651 39.2257 327.241 39.3957 327.771 39.9257C327.984 40.154 328.174 40.4018 328.341 40.6657C328.441 40.9657 328.561 41.2757 328.691 41.5857C328.728 41.6699 328.791 41.74 328.871 41.7857C328.504 42.1613 328.228 42.6165 328.065 43.1159C327.902 43.6154 327.856 44.1457 327.931 44.6657V44.6857ZM323.521 39.5657C323.452 39.6423 323.392 39.7262 323.341 39.8157L322.681 39.0957C322.566 38.9725 322.477 38.8274 322.42 38.669C322.363 38.5107 322.338 38.3425 322.348 38.1744C322.357 38.0063 322.4 37.8418 322.475 37.6908C322.549 37.5398 322.653 37.4054 322.781 37.2957C323.391 36.6457 323.481 36.8257 324.141 37.2357C324.471 37.4557 324.671 37.7557 325.141 37.7157C325.26 37.7079 325.374 37.6633 325.467 37.5881C325.561 37.5129 325.628 37.4108 325.661 37.2957C325.811 36.5757 325.371 35.7057 326.191 35.2957C327.271 34.7557 328.341 36.2957 328.791 37.2957C328.321 37.8945 328.089 38.6462 328.141 39.4057C327.874 39.0867 327.53 38.8422 327.141 38.6957C326.943 38.6069 326.728 38.5609 326.511 38.5609C326.294 38.5609 326.079 38.6069 325.881 38.6957C325.501 38.9257 325.451 39.3757 325.241 39.6957C324.601 39.4057 324.131 38.9157 323.521 39.5457V39.5657ZM327.841 31.2157C327.886 31.2579 327.94 31.2896 327.999 31.3086C328.057 31.3276 328.12 31.3335 328.181 31.3257C328.591 31.5657 328.921 32.1257 329.381 32.4357C329.841 32.7457 329.761 32.5457 330.131 32.5057C331.391 32.3357 331.751 33.3857 331.571 34.4357C331.12 34.8921 330.838 35.488 330.771 36.1257C330.495 36.1126 330.22 36.1545 329.961 36.249C329.701 36.3434 329.464 36.4885 329.261 36.6757C329.124 35.9785 328.775 35.3408 328.261 34.8502C327.747 34.3596 327.094 34.0401 326.391 33.9357C326.441 33.0857 326.201 32.2157 326.941 31.5857C327.057 31.4638 327.197 31.3665 327.351 31.2995C327.506 31.2325 327.672 31.1972 327.841 31.1957V31.2157ZM334.561 29.5757C334.909 29.919 335.175 30.3365 335.34 30.7971C335.504 31.2577 335.563 31.7494 335.511 32.2357C335.239 32.8444 335.086 33.4995 335.061 34.1657C334.675 33.848 334.201 33.655 333.703 33.6121C333.205 33.5693 332.706 33.6786 332.271 33.9257C332.342 33.4839 332.286 33.0309 332.109 32.6199C331.932 32.2089 331.641 31.857 331.271 31.6057C330.671 31.2857 330.511 31.6757 330.001 31.6057C329.641 31.5557 329.381 30.9657 329.051 30.6957C328.939 30.6121 328.822 30.5353 328.701 30.4657C328.701 29.6157 328.511 28.6957 329.431 28.1457C330.651 27.4257 331.221 28.8057 331.741 29.5957C331.798 29.6795 331.879 29.7442 331.974 29.7817C332.068 29.8191 332.172 29.8274 332.271 29.8057C333.081 29.6657 333.491 28.7657 334.561 29.5557V29.5757ZM337.151 30.5757C337.134 30.6969 337.111 30.8171 337.081 30.9357C336.796 31.0163 336.527 31.1412 336.281 31.3057C336.265 30.8053 336.148 30.3134 335.937 29.8596C335.725 29.4058 335.424 28.9996 335.051 28.6657L334.831 28.4857C335.121 28.4257 335.451 28.2657 335.571 28.2657C336.681 28.2057 337.201 29.6257 337.151 30.5857V30.5757ZM335.321 36.3357C335.621 36.4757 335.701 36.3357 336.011 36.3357C336.781 36.1857 337.461 35.3857 338.011 36.5457C338.351 37.2957 337.801 38.0957 337.461 38.7057C337.422 38.7576 337.401 38.8208 337.401 38.8857C337.401 38.9506 337.422 39.0138 337.461 39.0657C337.265 39.3057 337.119 39.5823 337.032 39.8793C336.944 40.1764 336.917 40.4879 336.951 40.7957C336.623 40.7074 336.278 40.7074 335.951 40.7957C335.97 40.1063 335.782 39.4271 335.411 38.8457C335.246 38.5993 335.02 38.3992 334.756 38.2644C334.492 38.1296 334.197 38.0647 333.901 38.0757C333.331 38.0057 333.291 38.0757 332.901 37.5957C332.721 37.3857 332.591 37.1357 332.391 36.9357C332.219 36.7745 332.031 36.6305 331.831 36.5057C331.837 36.4827 331.837 36.4586 331.831 36.4357C331.783 36.0455 331.884 35.6515 332.114 35.3326C332.344 35.0137 332.685 34.7934 333.071 34.7157L333.901 34.6457C335.101 34.9557 334.521 35.9557 335.321 36.3457V36.3357ZM341.581 32.5157C340.989 32.4645 340.395 32.586 339.871 32.8657C339.781 32.6057 339.751 32.2757 339.651 32.0757C339.472 31.7576 339.238 31.4733 338.961 31.2357C338.72 31.0211 338.421 30.882 338.101 30.8357C338.101 30.8357 338.101 30.8357 338.101 30.7757C338.361 29.8857 338.101 29.0457 339.261 28.7257C341.151 28.1857 342.521 30.9657 341.581 32.4357C341.575 32.4654 341.575 32.4959 341.581 32.5257V32.5157ZM342.981 36.5757C342.42 37.1035 342.022 37.7798 341.831 38.5257C341.356 38.1766 340.795 37.9642 340.208 37.9113C339.621 37.8584 339.031 37.9671 338.501 38.2257C339.031 37.2257 339.251 36.2257 338.241 35.3757C338.063 35.1972 337.845 35.0634 337.605 34.9852C337.365 34.907 337.11 34.8866 336.861 34.9257C336.731 34.9257 335.961 35.3357 335.941 35.3257C335.731 35.2457 335.761 34.9857 335.641 34.8057C335.744 34.7998 335.843 34.7605 335.922 34.6938C336.002 34.6271 336.057 34.5366 336.081 34.4357C336.191 33.8757 336.301 32.7857 336.811 32.4357C337.321 32.0857 338.391 32.5157 338.741 32.8957C339.091 33.2757 338.961 33.6457 339.331 33.8957C339.415 33.9712 339.521 34.0193 339.633 34.0336C339.746 34.0479 339.86 34.0277 339.961 33.9757C342.491 32.6557 342.871 35.1157 342.981 36.5857V36.5757ZM346.601 35.9257C346.356 35.7842 346.089 35.6861 345.811 35.6357C345.125 35.5246 344.422 35.6442 343.811 35.9757C343.868 35.3809 343.771 34.7814 343.529 34.235C343.288 33.6885 342.909 33.2135 342.431 32.8557C343.521 32.1157 345.111 30.8557 346.301 32.1757C346.734 32.694 346.996 33.3343 347.05 34.0079C347.104 34.6815 346.947 35.3552 346.601 35.9357V35.9257ZM346.771 39.2357C346.771 39.4657 346.771 39.6857 346.771 39.9057C346.773 39.988 346.803 40.0671 346.856 40.1305C346.908 40.1939 346.98 40.2379 347.061 40.2557C347.541 40.3657 347.881 40.0857 348.341 40.0357C351.131 39.7457 350.791 42.4457 349.741 44.0357C349.348 44.3118 348.971 44.609 348.611 44.9257C348.044 44.5249 347.365 44.3148 346.671 44.3257C346.931 43.6756 346.992 42.9632 346.848 42.2782C346.704 41.5932 346.36 40.9661 345.861 40.4757C345.64 40.2658 345.366 40.1196 345.068 40.0527C344.771 39.9858 344.461 40.0007 344.171 40.0957C343.661 40.1957 343.171 40.7657 342.811 40.5157C343.031 40.6657 342.441 39.2557 342.531 39.4257C342.555 39.3878 342.575 39.3476 342.591 39.3057C342.744 38.5041 343.194 37.7899 343.851 37.3057C344.851 36.5857 344.851 36.6857 345.851 37.5457C346.851 38.4057 346.761 38.1957 346.771 39.2457V39.2357ZM351.471 41.2357H351.271C351.205 40.9337 351.101 40.6414 350.961 40.3657C350.832 40.0623 350.632 39.7942 350.378 39.5837C350.124 39.3732 349.823 39.2265 349.501 39.1557C348.861 39.0257 348.201 39.4957 347.591 39.5457C347.782 38.5954 347.699 37.6104 347.351 36.7057C347.94 36.478 348.584 36.4292 349.201 36.5657C349.828 36.6504 350.433 36.8576 350.981 37.1757C352.051 37.8957 352.201 40.0357 351.471 41.1957V41.2357ZM354.931 47.5357C354.518 47.3641 354.084 47.2497 353.641 47.1957C353.757 46.6301 353.804 46.0526 353.781 45.4757C353.691 45.1094 353.521 44.7673 353.285 44.4736C353.048 44.1799 352.75 43.9417 352.411 43.7757C351.924 43.5143 351.357 43.443 350.821 43.5757C351.116 43.1198 351.291 42.5971 351.331 42.0557C351.905 41.8685 352.507 41.7773 353.111 41.7857C353.879 42.0617 354.538 42.577 354.991 43.2557C355.242 43.5956 355.423 43.9818 355.524 44.3919C355.625 44.802 355.645 45.2281 355.581 45.6457C355.569 46.3163 355.341 46.9652 354.931 47.4957V47.5357ZM354.451 53.1757H353.591C352.941 53.1757 352.291 53.1757 351.651 53.1757C352.018 52.8535 352.302 52.4463 352.476 51.9897C352.65 51.5331 352.71 51.0408 352.651 50.5557C352.649 50.1789 352.568 49.8068 352.415 49.4626C352.262 49.1184 352.039 48.8096 351.761 48.5557C351.273 48.2273 350.687 48.0756 350.101 48.1257C350.199 47.6594 350.182 47.1761 350.052 46.7178C349.921 46.2595 349.68 45.84 349.351 45.4957C349.689 45.0658 350.16 44.7599 350.691 44.6257L352.601 45.2557C353.271 45.9857 352.401 46.9857 352.601 47.7957C352.626 47.8879 352.676 47.9717 352.744 48.0384C352.813 48.1052 352.898 48.1526 352.991 48.1757C354.261 48.4157 355.511 48.8757 355.671 50.3657C355.709 50.8919 355.618 51.4196 355.405 51.9024C355.193 52.3853 354.865 52.8087 354.451 53.1357V53.1757ZM325.791 87.5057C326.131 87.0157 326.451 86.5057 326.791 86.1057C328.041 84.4257 329.381 82.8257 330.661 81.1757C333.061 78.1157 335.351 74.9957 337.771 71.9657C339.991 69.1857 342.191 66.3757 344.291 63.5157C345.531 61.8257 346.731 60.1057 347.941 58.4057C348.622 57.2739 349.363 56.179 350.161 55.1257C351.161 54.9557 352.101 54.7557 353.071 54.5057C353.534 54.4695 353.998 54.4695 354.461 54.5057C353.984 55.1795 353.463 55.821 352.901 56.4257C352.081 57.4257 351.231 58.4757 350.441 59.5357C349.241 61.1457 348.061 62.7857 346.881 64.4157C344.241 68.0857 341.651 71.7657 338.811 75.2857C336.501 78.1457 334.211 80.9857 332.011 83.9357C331.364 84.922 330.634 85.8519 329.831 86.7157C329.508 87.002 329.128 87.2154 328.716 87.3414C328.303 87.4674 327.868 87.5029 327.441 87.4457C326.861 87.4557 326.331 87.4657 325.791 87.4657V87.5057ZM321.401 87.5057C322.881 85.5057 324.261 83.5057 325.601 81.4257C327.521 78.4257 329.651 75.6457 331.601 72.6857C333.651 69.5457 335.941 66.5657 338.061 63.4657C339.791 60.9357 341.301 58.2557 342.921 55.6557H343.171C345.178 55.6562 347.183 55.5159 349.171 55.2357C349.021 55.4257 348.881 55.6257 348.751 55.8057C347.521 57.4657 346.291 59.1357 345.111 60.8057C342.841 64.0657 340.471 67.2457 338.051 70.3957C335.631 73.5457 333.051 76.8257 330.431 79.9757C328.431 82.3957 326.671 84.9757 324.751 87.4357C323.901 87.4357 323.051 87.4357 322.201 87.4357L321.401 87.5057ZM315.881 87.3957C316.301 86.8257 316.651 86.1857 317.001 85.6357C318.101 83.9457 319.281 82.3457 320.491 80.7357C322.463 78.1935 324.26 75.5207 325.871 72.7357C329.111 67.0157 333.121 61.4457 335.621 55.3357C336.28 55.458 336.951 55.505 337.621 55.4757C339.121 55.4757 340.621 55.6157 342.101 55.6757C340.211 57.7457 338.981 60.4957 337.401 62.7857C335.321 65.7857 333.071 68.6657 331.011 71.6657C328.951 74.6657 326.711 77.6657 324.741 80.7357C323.271 83.0257 321.791 85.3157 320.221 87.5357C319.001 87.5357 317.781 87.4657 316.551 87.4357L315.881 87.3957ZM316.471 77.3957C317.471 75.7557 318.301 74.0257 319.261 72.3957C320.221 70.7657 321.261 69.3357 322.171 67.7657C323.901 64.7657 325.631 61.7657 327.411 58.8357C328.94 56.5504 330.319 54.1688 331.541 51.7057C332.22 52.6619 332.976 53.5614 333.801 54.3957C334.125 54.7098 334.505 54.9608 334.921 55.1357C331.241 60.1957 328.191 65.8157 325.001 71.1357C323.341 73.9157 321.681 76.6757 319.801 79.3157C318.711 80.8457 317.571 82.3157 316.551 83.9057C315.993 85.0466 315.286 86.109 314.451 87.0657H314.361C313.755 86.5431 313.187 85.9783 312.661 85.3757L312.331 85.0457C312.974 84.0233 313.539 82.9535 314.021 81.8457C314.871 80.3257 315.601 78.8157 316.471 77.3657V77.3957ZM316.471 63.5057C319.541 57.3657 322.171 50.9757 325.371 44.9057C325.681 45.2557 326.001 45.5857 326.321 45.9057C327.651 47.3057 329.021 48.6757 330.321 50.1357C330.531 50.3757 330.731 50.6157 330.931 50.8657C330.156 52.0362 329.445 53.248 328.801 54.4957C328.041 55.8757 327.121 57.1457 326.331 58.4957C324.641 61.4057 323.011 64.3257 321.331 67.2557C320.391 68.9557 319.271 70.5457 318.331 72.2557C317.391 73.9657 316.581 75.6357 315.551 77.2557C314.631 78.6957 313.771 80.1657 312.831 81.5857C312.275 82.3772 311.774 83.2058 311.331 84.0657L307.681 80.5657C308.191 79.3357 308.961 78.1557 309.511 76.9557C310.231 75.3657 310.971 73.7857 311.781 72.2357C313.371 69.2857 315.011 66.4357 316.491 63.4757L316.471 63.5057ZM319.121 37.6657C321.041 39.8457 322.861 42.0957 324.801 44.2757C321.201 50.4057 318.201 56.9357 315.031 63.2757C313.471 66.3957 311.681 69.4257 310.221 72.5957C309.541 74.0557 308.921 75.5957 308.221 77.0257C307.791 77.9357 307.271 78.8757 306.921 79.8457L304.361 77.4057C303.957 77.0829 303.582 76.7248 303.241 76.3357C303.217 76.3258 303.197 76.3091 303.183 76.2878C303.168 76.2664 303.161 76.2413 303.161 76.2157C303.161 76.19 303.168 76.1649 303.183 76.1436C303.197 76.1222 303.217 76.1056 303.241 76.0957C303.486 75.4074 303.784 74.7388 304.131 74.0957C304.991 72.3457 305.891 70.6257 306.781 68.9057C308.551 65.4957 310.111 62.0757 311.591 58.5357C313.071 54.9957 314.591 51.6157 315.771 48.0657C316.421 46.1957 317.011 44.3257 317.601 42.4457C317.801 41.8457 318.491 38.6357 319.141 37.6357L319.121 37.6657Z" fill="url(#paint1_linear_811_171)"/>
<path d="M79.7893 59.891C78.783 59.917 77.7805 60.0248 76.7916 60.2132C76.2842 60.3173 75.758 60.2796 75.2706 60.1042C74.7832 59.9289 74.3535 59.6227 74.0287 59.2193C72.0054 57.6148 69.8977 56.1196 67.7147 54.74C63.6378 51.8657 58.2182 48.4353 56.4676 43.4995L56.4553 43.4408C56.5471 43.3116 56.6069 43.1625 56.6297 43.0057C56.7617 42.6322 56.8554 42.2462 56.9092 41.8538C56.9205 41.7181 56.892 41.582 56.8271 41.4623C57.2457 39.6538 57.3042 37.7806 56.9991 35.9496C56.3874 33.6665 53.9182 33.2445 52.6231 31.5032C51.0261 29.3451 51.3765 26.3392 49.4569 24.2998C48.6936 23.5606 47.8004 22.9686 46.8223 22.5534C46.1578 22.3385 45.5206 22.047 44.9236 21.6847C44.3267 21.0025 43.9205 20.1748 43.7459 19.2854C43.0763 17.3108 42.0813 15.149 40.1244 14.1494C37.8427 13.0136 35.3781 13.2956 32.954 13.0888C30.5299 12.882 29.0677 10.2461 26.4922 9.99953C24.5213 9.81008 22.6551 10.9474 21.102 12.0191C19.8957 12.8443 18.8058 14.3705 17.2981 14.6357C16.2759 14.6584 15.26 14.8029 14.272 15.0661C12.2104 16.0082 10.4732 17.5385 9.27866 19.4648C7.92518 21.5368 7.66284 23.8908 6.97506 26.2625C6.28729 28.6342 4.76364 30.3331 4.72119 32.7125C4.67874 35.0919 6.34191 36.9807 6.08839 39.2307C5.83488 41.4806 5.47869 43.2413 6.49797 45.2753C7.46556 47.1067 8.93583 48.6239 10.736 49.6485C11.2523 49.9182 11.8419 50.05 12.3212 50.3377C12.9099 50.7924 13.4137 51.3473 13.8095 51.9771C14.4015 52.855 15.1874 53.5851 16.1064 54.111C18.2414 55.2776 20.7157 55.1878 23.0766 55.1421C24.9415 55.1188 25.7541 55.1936 27.087 56.5795C27.8306 57.4331 28.7046 58.1636 29.6765 58.744C34.4917 61.2897 39.8492 58.9194 44.2785 56.7029C45.3827 56.7063 46.4688 56.8668 47.6076 56.7914C49.3186 56.6675 50.9149 57.0684 52.5913 57.0233C52.7101 57.0339 52.8294 57.0089 52.9339 56.9514C56.0575 58.2298 59.097 59.7047 62.0342 61.3673C63.957 62.4966 65.984 63.4406 67.9088 64.5798C69.8336 65.7189 69.875 68.2544 70.5317 70.3134C71.3898 72.9433 73.6133 78.3316 77.3131 76.5338C78.8242 75.7979 79.6713 73.8935 80.0767 72.3677C80.3423 71.269 80.299 70.1182 79.9514 69.0426C82.6389 69.7255 85.8168 68.7524 86.5215 65.6823C87.4193 62.0711 82.6899 59.8854 79.7893 59.891ZM46.5522 55.5108C45.7367 55.5086 44.9297 55.6779 44.1838 56.0076C40.4393 57.6411 34.7605 59.2102 30.9112 57.1772C29.2004 56.2792 28.4516 54.2191 26.7237 53.386C25.2461 52.6742 23.3279 53.0766 21.7272 53.0445C19.3874 53.0448 17.2548 52.9608 15.6462 51.0401C15.1504 50.2921 14.5737 49.601 13.9265 48.9793C13.0515 48.3147 11.9303 48.1821 11.03 47.5433C10.1052 46.9362 9.31816 46.1416 8.7199 45.211C8.12163 44.2805 7.72547 43.2346 7.55712 42.1412C7.38143 40.1345 8.13968 38.5859 7.36856 36.6632C6.42677 34.3166 5.92246 32.3993 7.22051 30.063C8.15739 28.2806 8.84816 26.3793 9.27397 24.4111C9.69851 22.2788 10.6972 20.3028 12.1624 18.6965C12.9966 17.7833 14.0293 17.0738 15.1809 16.6226C16.305 16.2336 17.4372 16.7113 18.5283 16.3599C19.2816 15.967 19.9466 15.4241 20.4824 14.7647C21.4846 13.8769 22.6033 13.13 23.8075 12.5449C24.245 12.2727 24.7319 12.0895 25.2403 12.0056C25.7487 11.9218 26.2686 11.939 26.7703 12.0562C28.1055 12.4301 28.9622 13.64 30.0963 14.3217C31.6766 15.3287 33.6221 15.1046 35.386 15.1842C38.4194 15.3245 40.3129 16.2658 41.4011 19.1641C42.1978 21.3062 42.5673 23.0679 44.8085 24.0589C46.3546 24.7564 47.8128 25.2781 48.6222 26.8964C49.0876 28.0442 49.4684 29.2244 49.7614 30.4278C50.4214 32.3014 51.7422 33.8699 53.4761 34.8392C54.9185 35.7729 55.1315 36.7398 55.0901 38.3935C55.0566 39.8412 54.933 41.2976 54.8268 42.7402L54.8433 42.8184C54.3676 43.7578 54.0377 44.7641 53.8651 45.8028C53.8139 46.6986 53.8552 47.5973 53.9882 48.4847C52.0822 49.1399 49.9728 48.8262 49.0683 51.0901C48.3294 53.023 49.6842 54.0262 50.7844 55.277C50.3682 55.2044 49.9466 55.1663 49.5242 55.1633C48.5283 55.2287 47.5364 55.3447 46.5522 55.5108ZM84.5653 64.5396C84.8822 65.7094 84.0271 66.5529 83.1162 67.0812C82.4666 67.4555 81.7223 67.6331 80.9737 67.5925C80.2251 67.5518 79.5045 67.2945 78.8993 66.852C78.7441 66.7315 78.5505 66.6715 78.3544 66.6832C78.1583 66.6948 77.9731 66.7774 77.8333 66.9154C77.6936 67.0535 77.6087 67.2376 77.5946 67.4336C77.5805 67.6295 77.6381 67.8239 77.7567 67.9806C78.3719 69.0137 78.6255 70.2225 78.4772 71.4158C78.3524 72.3309 77.714 74.1099 76.8638 74.6356C74.7482 75.9479 73.2626 72.0804 72.7769 70.6905C71.8741 67.8964 71.878 64.7485 69.082 63.1586C66.1361 61.4452 63.0858 59.9181 59.9489 58.5862C58.2951 57.9113 56.6227 57.3425 54.9756 56.748C54.4149 56.559 53.8552 56.2779 53.3414 56.069L53.3229 55.9809C52.6833 54.4904 50.8761 53.766 50.7784 52.1312C50.7149 51.0002 51.2229 50.7915 52.2969 50.5049C52.6591 50.4289 53.0505 50.3468 53.4127 50.2708C54.0196 50.2203 54.6178 50.0948 55.1939 49.8972C55.3395 49.8409 55.4672 49.7464 55.5637 49.6237C55.6602 49.501 55.722 49.3545 55.7424 49.1998C55.8405 48.1574 55.4838 47.139 55.6324 46.0452L55.709 45.6306C57.1165 48.363 59.1313 50.7366 61.5988 52.5693C63.0787 53.7302 64.5854 54.8242 66.0982 55.9476C67.8756 57.2607 69.885 58.2186 71.6083 59.6146C72.6578 60.4775 73.8849 62.0899 75.2485 62.3556C76.6121 62.6214 78.1161 61.7542 79.4923 61.6903C81.3846 61.651 84.0065 62.46 84.5653 64.5396Z" fill="url(#paint2_linear_811_171)"/>
<path d="M38.0327 48.8475C36.5457 49.6498 35.462 51.2054 33.5343 50.3939C32.0397 49.7469 31.656 48.356 30.8132 47.1636C29.3419 45.02 26.3983 47.354 24.2732 46.8189C22.5708 46.3994 22.0436 44.7628 20.6918 43.8713C19.8687 43.4292 18.9236 43.2686 18.0006 43.414C15.3714 43.4955 13.8906 42.2326 13.5541 39.6057C13.2878 37.5568 13.2859 35.2582 14.8759 33.7292C14.979 33.6361 14.8226 33.4748 14.7468 33.552C12.3352 35.3044 11.9426 39.6679 13.2669 42.2306C13.6283 42.918 14.1582 43.5025 14.8071 43.9293C15.456 44.3561 16.2025 44.6113 16.9768 44.671C18.3215 44.7976 19.2914 44.6964 20.2784 45.7972C20.8218 46.5864 21.4537 47.3109 22.1617 47.9566C22.8221 48.4126 23.5684 48.7294 24.3552 48.8876C25.142 49.0458 25.9528 49.0421 26.7381 48.8767C27.3155 48.7556 28.8848 48.1506 29.3708 48.3245C29.8569 48.4984 30.4054 49.8956 30.7306 50.2769C31.2162 50.9002 31.8326 51.4093 32.5364 51.7684C33.2403 52.1275 34.0143 52.3277 34.8039 52.355C36.6848 52.359 37.7111 51.1628 38.6068 49.6364C38.8445 49.2596 38.5283 48.58 38.0327 48.8475Z" fill="url(#paint3_linear_811_171)"/>
<path d="M46.2361 43.5304C44.895 44.8334 44.5791 47.1271 42.1993 47.0337C41.5205 47.0126 40.903 47.04 40.2128 47.0621C39.5211 47.0687 38.8432 46.8684 38.2662 46.4869C37.6892 46.1055 37.2393 45.5603 36.9744 44.9213C36.7033 44.4571 35.9505 44.9113 36.1629 45.3878C36.5211 46.6212 37.353 47.6626 38.4768 48.2845C39.0817 48.5503 39.7403 48.6711 40.4001 48.6372C41.1825 48.6161 41.941 48.7738 42.7156 48.7646C44.9452 48.7261 47.5681 46.0813 47.235 43.8113C47.2226 43.7006 47.1775 43.5961 47.1053 43.5112C47.0332 43.4262 46.9374 43.3648 46.8301 43.3346C46.7229 43.3044 46.609 43.307 46.5032 43.3418C46.3974 43.3767 46.3044 43.4424 46.2361 43.5304Z" fill="url(#paint4_linear_811_171)"/>
<path d="M36.5449 39.7083C36.1414 40.6103 35.1666 41.857 34.0264 41.1459C33.2274 40.6493 32.9769 39.4553 32.6536 38.6444C32.5849 38.497 32.4627 38.3812 32.3117 38.3207C32.1608 38.2601 31.9924 38.2593 31.8409 38.3184C31.6893 38.3775 31.566 38.4921 31.4959 38.6389C31.4258 38.7857 31.4143 38.9536 31.4636 39.1086C31.9216 40.2693 32.2511 41.7431 33.2018 42.5245C32.1777 43.5363 30.9919 44.4594 29.441 44.0797C27.2906 43.5703 26.3689 41.904 26.1438 39.8566C26.0876 39.2962 25.2748 39.4156 25.2955 39.9528C25.3883 42.5388 26.5514 45.0638 29.2914 45.705C31.3218 46.1783 33.889 45.1187 34.4694 43.0148C35.307 43.1033 36.1479 42.8796 36.8308 42.3866C37.1859 42.0848 37.4598 41.6987 37.6274 41.2638C37.795 40.8288 37.8509 40.3588 37.7901 39.8967C37.805 39.1885 36.7987 39.1646 36.5449 39.7083Z" fill="url(#paint5_linear_811_171)"/>
<path d="M23.2979 36.0804C22.8333 36.7398 22.1586 37.5659 21.3268 36.9128C20.8085 36.3969 20.3847 35.7941 20.0745 35.1319C19.6681 34.4611 18.4877 35.1174 18.857 35.8062C19.4217 36.8424 19.9615 38.1494 21.1117 38.6642C22.697 39.3535 24.0085 38.2507 24.5246 36.8142C24.7765 36.0666 23.7876 35.3953 23.2979 36.0804Z" fill="url(#paint6_linear_811_171)"/>
<path d="M21.6443 18.8429C19.7124 18.6966 17.7816 19.1408 16.1079 20.1165C14.6661 21.1342 14.4223 23.3821 14.4355 25.0039C14.4263 25.1087 14.4313 25.2142 14.4503 25.3176C14.2975 25.4744 14.1549 25.6408 14.0234 25.8158C13.6595 26.5665 13.5954 27.4276 13.844 28.2239C14.01 29.0003 14.4321 29.6984 15.0426 30.2059C15.6531 30.7135 16.4165 31.0011 17.2102 31.0225C17.3319 31.0102 17.446 30.9577 17.5345 30.8732C17.6231 30.7888 17.6809 30.6772 17.6989 30.5562C17.7169 30.4352 17.694 30.3116 17.6339 30.2051C17.5738 30.0985 17.4799 30.015 17.367 29.9679C15.6444 29.6957 14.0774 27.3882 15.7234 25.9803C15.8168 25.9093 15.8898 25.8149 15.9353 25.7068C15.9807 25.5986 15.997 25.4805 15.9824 25.364C15.8763 24.871 15.8809 24.3605 15.9959 23.8694C16.0402 23.116 16.3461 22.4017 16.8608 21.8498C17.3756 21.2979 18.0668 20.9429 18.8153 20.8463C19.9115 20.6163 21.1955 20.5514 21.9877 19.7006C22.054 19.6298 22.0987 19.5416 22.1167 19.4463C22.1346 19.351 22.1249 19.2525 22.0889 19.1625C22.0529 19.0725 21.9919 18.9946 21.9131 18.9379C21.8344 18.8813 21.7411 18.8483 21.6443 18.8429Z" fill="url(#paint7_linear_811_171)"/>
<path d="M36.4555 20.9163C34.8045 20.7415 34.13 18.4512 32.206 18.2417C30.5215 18.0535 29.7552 19.3688 29.1341 20.6946C28.9303 21.1358 29.633 21.6117 29.8914 21.1386C32.0205 17.6982 33.6287 22.1019 35.8236 22.3363C37.4669 22.5229 38.5897 22.4202 39.3599 24.2409C39.6444 25.2803 39.8658 26.336 40.023 27.4021C40.2357 28.1238 41.2432 27.8614 41.3688 27.2424C41.5359 26.4088 41.5189 25.5488 41.3191 24.7224C41.1193 23.896 40.7415 23.1232 40.212 22.458C39.1341 21.0697 38.0242 21.0879 36.4555 20.9163Z" fill="url(#paint8_linear_811_171)"/>
<path d="M39.6243 29.8871C38.9621 29.7501 38.8383 30.7672 39.4871 30.9376C40.4445 31.0708 41.3428 31.4786 42.0732 32.1117C42.6368 32.8476 43.1418 33.6265 43.5836 34.4413C43.6349 34.5164 43.7074 34.5746 43.7918 34.6086C43.8762 34.6425 43.9688 34.6507 44.0578 34.632C44.1469 34.6133 44.2284 34.5687 44.2921 34.5037C44.3557 34.4386 44.3987 34.3562 44.4155 34.2668C44.549 31.3472 41.955 30.3791 39.6243 29.8871Z" fill="url(#paint9_linear_811_171)"/>
<defs>
<linearGradient id="paint0_linear_811_171" x1="106.519" y1="138.472" x2="213.325" y2="98.4159" gradientUnits="userSpaceOnUse">
<stop stop-color="#FF9600"/>
<stop offset="1" stop-color="#FF007B"/>
</linearGradient>
<linearGradient id="paint1_linear_811_171" x1="301.001" y1="58.1857" x2="356.991" y2="58.1857" gradientUnits="userSpaceOnUse">
<stop stop-color="#FF9600"/>
<stop offset="1" stop-color="#FF007B"/>
</linearGradient>
<linearGradient id="paint2_linear_811_171" x1="36.5823" y1="7.63788" x2="52.1757" y2="81.9801" gradientUnits="userSpaceOnUse">
<stop stop-color="#FF9600"/>
<stop offset="1" stop-color="#FF007B"/>
</linearGradient>
<linearGradient id="paint3_linear_811_171" x1="22.9556" y1="31.7688" x2="27.6073" y2="53.9462" gradientUnits="userSpaceOnUse">
<stop stop-color="#FF9600"/>
<stop offset="1" stop-color="#FF007B"/>
</linearGradient>
<linearGradient id="paint4_linear_811_171" x1="41.4915" y1="43.7082" x2="42.5693" y2="48.8464" gradientUnits="userSpaceOnUse">
<stop stop-color="#FF9600"/>
<stop offset="1" stop-color="#FF007B"/>
</linearGradient>
<linearGradient id="paint5_linear_811_171" x1="31.1798" y1="38.3405" x2="32.6661" y2="45.4263" gradientUnits="userSpaceOnUse">
<stop stop-color="#FF9600"/>
<stop offset="1" stop-color="#FF007B"/>
</linearGradient>
<linearGradient id="paint6_linear_811_171" x1="21.3389" y1="34.4376" x2="22.2668" y2="38.8613" gradientUnits="userSpaceOnUse">
<stop stop-color="#FF9600"/>
<stop offset="1" stop-color="#FF007B"/>
</linearGradient>
<linearGradient id="paint7_linear_811_171" x1="17.0823" y1="19.4524" x2="19.4246" y2="30.6193" gradientUnits="userSpaceOnUse">
<stop stop-color="#FF9600"/>
<stop offset="1" stop-color="#FF007B"/>
</linearGradient>
<linearGradient id="paint8_linear_811_171" x1="34.1465" y1="17.7019" x2="36.458" y2="28.722" gradientUnits="userSpaceOnUse">
<stop stop-color="#FF9600"/>
<stop offset="1" stop-color="#FF007B"/>
</linearGradient>
<linearGradient id="paint9_linear_811_171" x1="41.2191" y1="29.5015" x2="42.3605" y2="34.9431" gradientUnits="userSpaceOnUse">
<stop stop-color="#FF9600"/>
<stop offset="1" stop-color="#FF007B"/>
</linearGradient>
</defs>
</svg>
