<svg width="114" height="64" viewBox="0 0 114 64" fill="none" xmlns="http://www.w3.org/2000/svg">
<path d="M6.25113 53.945C12.4878 59.198 20.2178 62.3578 28.3483 62.9779C36.821 63.6612 46.4961 63.1146 54.3128 59.6162C57.6191 58.0792 60.5275 55.8021 62.8128 52.9611C64.5783 50.3915 65.4913 47.332 65.4229 44.2151C67.2541 41.564 67.1447 37.3823 66.7894 34.3759C66.2904 31.0413 64.8111 27.9303 62.5395 25.4387C57.5921 19.605 51.0237 15.372 43.6674 13.2763C38.1921 11.4907 32.5021 10.4474 26.7494 10.1742C22.8353 9.69997 18.8646 10.1975 15.1884 11.6228C11.4644 13.3771 8.22682 16.0169 5.75882 19.3115C3.29082 22.6062 1.66752 26.4553 1.03089 30.5222C0.864842 31.8905 0.934162 33.277 1.23586 34.6219C-1.83889 41.113 1.19488 49.5447 6.25113 53.945ZM64.2886 40.2794C64.2279 41.3059 63.8352 42.2848 63.1697 43.0686C62.5042 43.8524 61.602 44.3987 60.599 44.6251C58.5902 45.117 57.1963 44.1878 55.2968 43.9554C53.3973 43.7231 52.4406 44.912 51.9076 46.6885C50.9237 49.9136 48.5733 53.453 44.7743 50.9659C43.1754 49.9273 42.2462 47.1122 40.1964 46.8662C38.5292 46.6476 37.6272 48.4788 36.9986 49.7087C36.0967 51.4852 35.2494 53.658 33.0629 54.1773C31.1771 54.6282 29.4689 53.2207 28.2117 51.9908C26.9544 50.7609 25.5606 47.6861 23.5244 46.9892C22.4721 46.6339 21.6385 47.1669 20.6683 47.4949C18.4818 48.2465 16.3226 48.4514 14.8331 46.3469C13.3435 44.2424 12.8242 41.2907 10.8564 39.6098C10.2324 39.1114 9.43643 38.8805 8.6426 38.9675C7.727 39.0049 6.81791 38.7981 6.00862 38.3682C5.19933 37.9384 4.51898 37.301 4.03732 36.5214C3.72867 35.9938 3.47671 35.4349 3.28569 34.8542C3.39967 34.6362 3.42783 34.3833 3.36459 34.1455C3.30135 33.9077 3.1513 33.7023 2.94405 33.5697C2.53471 31.2068 2.71785 28.7793 3.47703 26.5046C4.74221 23.0368 6.84536 19.9357 9.5992 17.4775C12.353 15.0193 15.6721 13.2803 19.2607 12.4154C22.7864 11.7048 26.8041 12.2924 30.3435 12.675C33.7541 13.0643 37.1429 13.6253 40.497 14.3559C41.6995 14.7249 42.8884 15.1212 44.05 15.5175C51.156 17.9773 58.0162 22.4869 62.2115 28.855C64.3662 32.2417 65.1254 36.3314 64.3297 40.2658L64.2886 40.2794ZM3.13539 45.2127C2.34624 42.7389 2.09463 40.1252 2.39744 37.5463C2.61236 37.8801 2.85461 38.1955 3.12171 38.4892C4.04027 39.527 5.2657 40.2451 6.62008 40.5391C7.26237 40.6757 8.08231 40.5391 8.68359 40.7031C10.0501 41.1404 10.6104 42.7665 11.1297 43.9554C12.264 46.5929 13.3982 49.4217 16.4456 50.1733C18.0912 50.4533 19.7827 50.2443 21.3105 49.572C22.1578 49.285 22.4584 48.957 23.2374 49.572C24.0163 50.1869 24.2896 51.0479 24.7816 51.6901C26.4898 53.945 29.3185 56.5824 32.3523 56.3501C35.0854 56.1314 36.8209 53.9723 37.8185 51.6082C38.1191 50.8839 38.3105 49.4763 38.8981 48.957C40.169 47.8365 41.2212 48.957 42.0001 50.0366C42.6278 50.9809 43.4248 51.8009 44.3507 52.4554C45.3471 53.1531 46.5457 53.5031 47.761 53.4512C48.9764 53.3993 50.1407 52.9485 51.0741 52.1684C52.0721 51.1677 52.8455 49.9658 53.3426 48.6427C53.4657 47.9909 53.6581 47.3541 53.9165 46.7432C54.5725 45.8003 55.6247 46.2239 56.6496 46.5656C57.8999 47.057 59.2547 47.2221 60.5864 47.0452C61.9181 46.8683 63.1828 46.3552 64.2614 45.5543C63.7452 48.296 62.4554 50.8329 60.5443 52.8654C57.9588 55.527 54.765 57.5202 51.2381 58.6733C44.4053 60.8734 37.2856 61.0237 30.1795 60.8187C22.9656 60.5204 15.9908 58.148 10.0911 53.986C6.77839 52.0098 4.30402 48.8888 3.13539 45.2127Z" fill="url(#paint0_linear_811_170)"/>
<path d="M22.7591 33.9657C27.9621 37.7268 34.4429 39.2746 40.784 38.2703C46.0179 37.5597 48.9833 32.5171 44.6786 28.5814C39.7864 24.1265 33.7462 22.4593 27.2687 22.1177C26.8998 22.1177 26.9134 22.6506 27.2687 22.6916C31.7748 23.1307 36.112 24.6342 39.923 27.0783C41.6497 28.0863 43.1371 29.4571 44.2824 31.0959C44.4981 31.4458 44.6365 31.8377 44.6883 32.2455C44.7402 32.6532 44.7042 33.0673 44.583 33.4601C43.694 32.0243 42.3834 30.8981 40.8302 30.2352C39.277 29.5724 37.5571 29.4053 35.9054 29.7567C35.0925 29.9017 34.2583 29.8757 33.4559 29.6804C32.6536 29.4851 31.9007 29.1248 31.2454 28.6224C30.3815 28.0626 29.4076 27.6945 28.3893 27.5429C25.8202 27.3516 24.399 30.153 21.8572 30.276C21.6703 30.2824 21.4896 30.3443 21.3379 30.4537C20.231 28.7045 20.2583 26.7093 23.3194 25.8757C23.4502 25.8302 23.5589 25.7367 23.6234 25.6142C23.688 25.4917 23.7036 25.3492 23.6672 25.2156C23.6307 25.082 23.5449 24.9672 23.4271 24.8944C23.3093 24.8216 23.1682 24.7962 23.0324 24.8234C20.9963 25.3564 19.5067 26.0944 19.3974 28.4038C19.2881 30.7133 20.9279 32.5991 22.7591 33.9657ZM22.6771 31.9432C24.0437 31.8339 24.4673 30.932 25.8338 30.153C28.075 28.8685 29.3186 29.5107 31.2181 30.686C31.7334 31.0632 32.3119 31.3455 32.9263 31.5196C35.1128 32.0525 37.1899 30.6313 39.3901 31.2189C41.1995 31.8492 42.7826 32.9996 43.9407 34.526C43.1415 35.3555 42.106 35.9186 40.9752 36.1385C37.1341 36.8457 33.1767 36.5731 29.4689 35.3459C27.3792 34.7139 25.3877 33.7941 23.5517 32.6128C23.233 32.415 22.9313 32.1911 22.6498 31.9432H22.6771Z" fill="url(#paint1_linear_811_170)"/>
<g clip-path="url(#clip0_811_170)">
<path d="M113.79 29.8202C113.455 28.6995 112.931 27.6444 112.24 26.7002C111.732 26.0187 111.427 25.2075 111.36 24.3602C111.489 23.3909 111.83 22.462 112.36 21.6402C113.36 19.4702 113.55 16.8802 111.77 15.0402C110.77 14.0402 109.29 13.7602 108.24 12.8702C107.19 11.9802 108.81 9.73021 108.99 8.63021C109.201 7.50277 109.019 6.33696 108.472 5.32828C107.926 4.31961 107.05 3.52941 105.99 3.09021C104.893 2.60056 103.68 2.43071 102.49 2.60021C101.629 2.85644 100.813 3.24436 100.07 3.75021C98.239 1.99089 95.9591 0.769598 93.48 0.220212C90.995 -0.19287 88.4432 0.155742 86.16 1.22021C83.72 2.31021 81.99 4.68021 79.26 4.91021C76.53 5.14021 74.26 5.47021 72 7.06021C69.93 8.50021 68 10.3302 67.72 12.9502C67.55 14.2902 68.13 15.8102 67.72 17.0402C67.31 18.2702 65.63 19.1902 64.72 20.2602C63.9562 21.1771 63.4299 22.268 63.1875 23.4365C62.945 24.6049 62.994 25.8151 63.33 26.9602C63.7354 27.9483 64.3587 28.8321 65.1535 29.5455C65.9483 30.2589 66.894 30.7835 67.92 31.0802C67.92 31.3135 67.94 31.5535 67.98 31.8002C67.9063 33.3053 67.7427 34.8046 67.49 36.2902C67.23 39.1002 67.17 41.9302 67.19 44.7502C67.0436 47.5059 67.2553 50.269 67.82 52.9702C68.35 54.9702 70.01 56.3802 71.67 57.5002C76.5015 60.6894 82.0454 62.637 87.81 63.1702C89.97 63.3702 92.69 63.4402 94.72 62.5802C96.75 61.7202 97.65 59.1202 98.44 57.3902C99.81 54.3902 100.89 51.2902 102.1 48.2102C103.31 45.1302 104.54 42.4202 105.46 39.3802C107.624 38.7825 109.609 37.6631 111.24 36.1202C112.77 34.6902 114.24 32.0202 113.79 29.8202ZM71.79 55.4802C70.514 54.6157 69.6051 53.3076 69.24 51.8102C68.9537 50.0818 68.8166 48.3321 68.83 46.5802C68.7 43.5802 68.63 40.5802 68.71 37.5002C68.71 36.0402 68.98 34.5902 69.04 33.1302C69.0783 32.5566 69.0616 31.9806 68.99 31.4102C70.37 31.7802 71.78 31.9102 73.18 32.2402C73.38 32.2402 73.55 32.3402 73.72 32.3902C73.4 33.9205 73.2226 35.4772 73.19 37.0402C73.02 39.0402 72.74 41.0402 72.63 43.0402C72.52 45.0402 72.31 47.2602 72.19 49.3702C72.07 51.4802 72.29 53.5902 72.1 55.6902L71.79 55.4802ZM72.96 56.3302C72.9969 56.2819 73.0222 56.2258 73.0342 56.1661C73.0461 56.1065 73.0443 56.045 73.0289 55.9862C73.0134 55.9274 72.9848 55.8728 72.9452 55.8268C72.9055 55.7807 72.8559 55.7442 72.8 55.7202C73.39 56.0302 73.15 54.3702 73.14 53.8802C73.14 52.8202 73.14 51.7702 73.14 50.7102C73.14 48.5302 73.46 46.3602 73.57 44.1802C73.68 42.0002 73.89 39.8602 74.07 37.6902C74.21 36.0802 74.46 34.4202 74.46 32.7802C74.7811 33.0562 75.0401 33.397 75.22 33.7802C75.4346 34.3427 75.6989 34.8848 76.01 35.4002C76.7556 36.4866 77.7966 37.3367 79.01 37.8502C77.8743 44.6767 77.206 51.5727 77.01 58.4902C75.5977 57.8936 74.2423 57.1706 72.96 56.3302ZM86.32 38.5002C85.6066 40.2496 85.0543 42.0604 84.67 43.9102C84.03 46.0902 83.72 48.2902 83.23 50.5002C82.84 52.2602 82.43 54.0202 82.07 55.7802C81.6899 57.1904 81.3993 58.6233 81.2 60.0702L80.2 59.7502C79.44 59.5002 78.68 59.2202 77.93 58.9202C78.34 55.3202 78.38 51.6302 78.62 48.0102C78.84 44.7602 79.56 41.3702 79.55 38.1002C80.4132 38.3939 81.3106 38.5754 82.22 38.6402C83.5367 38.7604 84.8631 38.7201 86.17 38.5202H86.33L86.32 38.5002ZM87.51 56.8302C87.0325 58.2706 86.6976 59.7544 86.51 61.2602C85.143 61.0741 83.79 60.7969 82.46 60.4302C83.24 57.2602 83.58 53.9002 84.19 50.7102C84.57 48.7102 84.78 46.7102 85.27 44.7702C85.6594 42.7032 86.1534 40.6572 86.75 38.6402C86.7632 38.5991 86.7601 38.5544 86.7415 38.5154C86.723 38.4764 86.6903 38.446 86.65 38.4302C86.9781 38.3035 87.3325 38.26 87.6815 38.3037C88.0304 38.3473 88.3632 38.4767 88.65 38.6802C89.19 39.0302 89.65 39.6202 90.17 40.0002C90.8472 40.47 91.5711 40.8688 92.33 41.1902C91.33 44.6902 90.14 48.1902 89.07 51.6502C88.5 53.3602 88.02 55.1002 87.51 56.8302ZM87.58 61.3802C88.0275 60.078 88.362 58.7398 88.58 57.3802C89.05 55.5502 89.58 53.7302 90.03 51.9002C90.95 48.4402 92.03 44.9002 92.79 41.4202C94.3525 42.0075 96.0278 42.2331 97.69 42.0802H97.99C96.63 45.6902 95.13 49.2702 93.72 52.8602C93.03 54.6202 92.4 56.4002 91.72 58.1502C91.26 59.2502 90.72 60.3602 90.35 61.5102H89.73C89.0115 61.5076 88.2936 61.4642 87.58 61.3802ZM100.24 47.9602C99.15 50.8502 98.08 53.7002 96.79 56.5202C96.16 57.8902 95.33 60.2402 93.9 60.9302C93.2478 61.2113 92.5496 61.3705 91.84 61.4002C94.3534 55.0659 96.5101 48.5957 98.3 42.0202C100.18 41.6602 101.72 40.5402 103.45 39.9002C102.53 42.6102 101.31 45.2302 100.24 47.9602ZM111.02 33.3602C109.54 35.5474 107.309 37.1163 104.75 37.7702C103.962 37.8014 103.184 37.9497 102.44 38.2102C101.37 38.6802 100.44 39.3502 99.29 39.7302C98.0923 40.1147 96.8286 40.2501 95.5766 40.128C94.3246 40.0059 93.1108 39.6289 92.01 39.0202C91.0405 38.3433 90.1153 37.6052 89.24 36.8102C88.8738 36.5737 88.4604 36.4199 88.0286 36.3595C87.5969 36.299 87.1571 36.3334 86.74 36.4602C84.34 36.7802 81.48 37.1502 79.26 35.9302C78.06 35.2138 77.1851 34.0593 76.82 32.7102C76.6713 31.9668 76.2682 31.2985 75.68 30.8202C74.8115 30.4184 73.867 30.207 72.91 30.2002C71.7321 30.0469 70.566 29.813 69.42 29.5002C68.07 29.1102 66.42 28.5002 65.56 27.2502C65.1212 26.4901 64.8901 25.6279 64.8901 24.7502C64.8901 23.8725 65.1212 23.0103 65.56 22.2502C66.56 20.4902 68.82 19.6302 69.56 17.8102C69.7564 17.2238 69.7943 16.596 69.67 15.9902C69.5 14.1202 69.39 12.4402 70.67 10.8702C71.5566 9.79654 72.6463 8.90826 73.8766 8.25621C75.1069 7.60416 76.4538 7.20113 77.84 7.07021C80.08 6.83021 81.74 6.81021 83.33 5.07021C85.307 3.03069 87.9285 1.73761 90.75 1.41021C94 1.02021 96.57 2.27021 99.04 4.20021C98.9571 4.34236 98.9172 4.50554 98.9252 4.66993C98.9332 4.83431 98.9887 4.99284 99.0851 5.12627C99.1815 5.25969 99.3145 5.36227 99.468 5.42155C99.6215 5.48083 99.789 5.49426 99.95 5.46021C100.74 5.29021 101.32 4.65021 102.06 4.38021C102.639 4.21828 103.245 4.18001 103.839 4.26788C104.434 4.35575 105.003 4.56779 105.51 4.89021C108.37 6.67021 106.3 9.36021 105.73 11.7502C105.34 13.3802 106.34 14.1502 107.68 14.8402C108.75 15.3902 110.08 15.8402 110.74 16.9102C111.54 18.2402 111.06 19.7102 110.49 20.9902C109.68 22.8102 108.99 24.2802 109.85 26.2302C110.21 27.0602 110.74 27.7902 111.18 28.5802C111.599 29.3118 111.809 30.1442 111.788 30.987C111.767 31.8298 111.515 32.6506 111.06 33.3602H111.02Z" fill="url(#paint2_linear_811_170)"/>
<path d="M88.63 30.3699C86.63 30.6299 84.03 31.6799 82.87 29.3099C82.33 28.2199 82.94 27.4599 82.81 26.3699C82.8148 26.2332 82.7916 26.0971 82.7417 25.9698C82.6918 25.8425 82.6163 25.7268 82.52 25.6299C82.2 25.3299 81.64 25.3999 81.24 25.3599C80.2405 25.3088 79.2504 25.141 78.29 24.8599C76.98 24.4299 75.73 23.5799 75.76 22.0599C75.76 20.9399 76.64 20.2499 77.17 19.3799C77.2433 19.2593 77.282 19.1209 77.282 18.9799C77.282 18.8388 77.2433 18.7004 77.17 18.5799C76.42 17.5199 73.91 17.2599 75.01 15.4699C75.92 13.9899 78.1 13.6699 79.66 13.3499C79.97 13.2899 79.87 12.7799 79.56 12.8099C77.5 12.9999 74.78 13.2299 73.56 15.1799C73.3232 15.5066 73.1907 15.8972 73.18 16.3006C73.1693 16.7039 73.2809 17.1011 73.5 17.4399C73.8228 17.9057 74.2138 18.3204 74.66 18.6699C74.9183 18.8429 75.189 18.9967 75.47 19.1299C74.7231 19.8853 74.2362 20.8591 74.08 21.9099C73.9748 22.9458 74.284 23.9812 74.94 24.7899C75.5551 25.5158 76.3474 26.0704 77.24 26.3999C77.919 26.6408 78.6302 26.7789 79.35 26.8099C80.01 26.8099 80.81 26.6099 81.44 26.6999C81.71 26.2699 81.74 26.3599 81.52 26.9599C81.4308 27.3125 81.3607 27.6697 81.31 28.0299C81.235 28.4767 81.235 28.933 81.31 29.3799C81.5181 30.1972 82.0201 30.9092 82.72 31.3799C84.47 32.6799 87.47 33.0199 89.04 31.2899C89.37 31.0199 89.14 30.2999 88.63 30.3699Z" fill="url(#paint3_linear_811_170)"/>
<path d="M105.39 29.43C105.332 29.3386 105.248 29.2663 105.149 29.2222C105.05 29.1782 104.94 29.1644 104.833 29.1826C104.727 29.2007 104.628 29.25 104.549 29.3243C104.47 29.3986 104.415 29.4945 104.39 29.6C104.279 30.1612 104.206 30.7291 104.17 31.3C103.979 31.6618 103.704 31.9724 103.369 32.2056C103.033 32.4388 102.646 32.5878 102.24 32.64C101.1 32.79 101.03 32.5 99.94 31.97C99.81 31.91 99.76 31.74 99.59 31.7C99.4253 31.6449 99.2506 31.6262 99.0779 31.6452C98.9053 31.6642 98.7388 31.7204 98.59 31.81C98.4349 31.9152 98.2966 32.0433 98.18 32.19L97.88 32.52C97.23 33.41 96.44 33.08 95.49 31.52C95.65 31.03 94.87 30.75 94.65 31.21C94.5167 31.5294 94.4526 31.8734 94.4619 32.2194C94.4712 32.5653 94.5536 32.9054 94.7038 33.2172C94.854 33.5289 95.0686 33.8053 95.3334 34.0282C95.5982 34.251 95.9072 34.4153 96.24 34.51C96.5674 34.6464 96.9251 34.6932 97.2766 34.6458C97.628 34.5984 97.9605 34.4583 98.24 34.24C98.5463 34.0431 98.8113 33.7884 99.02 33.49C99.1167 33.4377 99.2018 33.3663 99.27 33.28C100.36 34.53 102.79 34.49 104.2 33.91C106.13 33.15 106.24 31.1 105.39 29.43Z" fill="url(#paint4_linear_811_170)"/>
<path d="M99.13 8.54996C98.55 6.23996 95.56 5.49996 93.44 5.48996C92.5779 5.42227 91.7205 5.66982 91.0271 6.18664C90.3337 6.70346 89.8515 7.45441 89.67 8.29996C89.1358 7.85323 88.4561 7.61835 87.76 7.63996C86.8784 7.74262 86.0696 8.17922 85.5 8.85996C84.8911 9.56968 84.5351 10.4616 84.4881 11.3955C84.441 12.3295 84.7055 13.2526 85.24 14.02C85.4 14.26 85.82 14.09 85.71 13.8C85.443 13.1904 85.3377 12.5223 85.4043 11.8601C85.4708 11.198 85.707 10.5642 86.09 10.02C86.2505 9.78446 86.4581 9.58481 86.6997 9.43364C86.9412 9.28247 87.2115 9.18306 87.4935 9.14171C87.7754 9.10036 88.0629 9.11795 88.3377 9.19339C88.6125 9.26882 88.8687 9.40046 89.09 9.57997C89.3 9.69997 89.45 9.88997 89.69 10.01C89.7856 10.0544 89.8897 10.0773 89.9951 10.0771C90.1005 10.0769 90.2045 10.0535 90.2999 10.0087C90.3953 9.9639 90.4796 9.89869 90.547 9.81769C90.6144 9.73669 90.6633 9.64189 90.69 9.53996C90.95 8.53996 90.84 7.72996 92.05 7.17996C92.7514 6.94724 93.5052 6.92292 94.22 7.10996C95.7279 7.34751 97.1253 8.04617 98.22 9.10996C98.2943 9.23064 98.4134 9.31687 98.5513 9.34969C98.6891 9.38251 98.8344 9.35922 98.955 9.28496C99.0757 9.2107 99.1619 9.09155 99.1947 8.95371C99.2276 8.81587 99.2043 8.67064 99.13 8.54996Z" fill="url(#paint5_linear_811_170)"/>
<path d="M103.48 18.6302C103.424 18.2626 103.296 17.9098 103.102 17.5926C102.908 17.2755 102.652 17.0003 102.35 16.7832C102.049 16.5661 101.706 16.4116 101.344 16.3286C100.982 16.2457 100.606 16.236 100.24 16.3002C99.86 16.3002 99.5 16.4702 99.13 16.5202L98.87 16.5802C98.8565 16.5341 98.8363 16.4903 98.81 16.4502C98.46 15.9102 98.65 15.1602 98.1 14.6602C96.88 13.5402 95.23 14.7202 94.1 15.3902C93.72 15.6202 94.1 16.1602 94.46 15.9602C95.06 15.6602 95.94 15.0102 96.63 15.1202C97.98 15.3302 97.41 16.2602 97.47 16.9202C97.53 17.4102 97.62 17.7402 98.1 17.9202C98.83 18.2602 99.72 17.7702 100.49 17.8402C103.07 18.0602 100.88 20.7402 100.16 21.7102C100.067 21.8194 100.011 21.9556 100.001 22.0988C99.9916 22.242 100.028 22.3846 100.105 22.5056C100.183 22.6265 100.297 22.7195 100.431 22.7707C100.565 22.8219 100.712 22.8287 100.85 22.7902C102.6 22.4402 103.69 20.3002 103.48 18.6302Z" fill="url(#paint6_linear_811_170)"/>
<path d="M89.24 21.5701C88.7 21.2201 87.24 21.4501 86.85 20.8801C86.46 20.3101 88.44 17.4901 89.3 17.6301C89.57 17.6301 89.66 17.2601 89.4 17.2201C88.9966 17.1595 88.5843 17.2083 88.2061 17.3613C87.8279 17.5143 87.4978 17.766 87.25 18.0901C86.5 18.7901 85.5 19.7301 85.45 20.8301C85.38 22.3901 87.68 23.1001 88.94 22.9101C89.0925 22.897 89.2369 22.8357 89.3521 22.735C89.4674 22.6343 89.5476 22.4994 89.5811 22.35C89.6145 22.2007 89.5994 22.0445 89.5381 21.9043C89.4768 21.764 89.3724 21.647 89.24 21.5701Z" fill="url(#paint7_linear_811_170)"/>
</g>
<defs>
<linearGradient id="paint0_linear_811_170" x1="-0.00770016" y1="36.6171" x2="67.0628" y2="36.6171" gradientUnits="userSpaceOnUse">
<stop stop-color="#FF9600"/>
<stop offset="1" stop-color="#FF007B"/>
</linearGradient>
<linearGradient id="paint1_linear_811_170" x1="19.3837" y1="30.3307" x2="46.7558" y2="30.3307" gradientUnits="userSpaceOnUse">
<stop stop-color="#FF9600"/>
<stop offset="1" stop-color="#FF007B"/>
</linearGradient>
<linearGradient id="paint2_linear_811_170" x1="63" y1="31.6402" x2="113.86" y2="31.6402" gradientUnits="userSpaceOnUse">
<stop stop-color="#FF9600"/>
<stop offset="1" stop-color="#FF007B"/>
</linearGradient>
<linearGradient id="paint3_linear_811_170" x1="73.13" y1="22.6499" x2="89.2" y2="22.6499" gradientUnits="userSpaceOnUse">
<stop stop-color="#FF9600"/>
<stop offset="1" stop-color="#FF007B"/>
</linearGradient>
<linearGradient id="paint4_linear_811_170" x1="94.49" y1="31.91" x2="105.91" y2="31.91" gradientUnits="userSpaceOnUse">
<stop stop-color="#FF9600"/>
<stop offset="1" stop-color="#FF007B"/>
</linearGradient>
<linearGradient id="paint5_linear_811_170" x1="84.5" y1="9.81996" x2="99.15" y2="9.81996" gradientUnits="userSpaceOnUse">
<stop stop-color="#FF9600"/>
<stop offset="1" stop-color="#FF007B"/>
</linearGradient>
<linearGradient id="paint6_linear_811_170" x1="93.98" y1="18.5202" x2="103.51" y2="18.5202" gradientUnits="userSpaceOnUse">
<stop stop-color="#FF9600"/>
<stop offset="1" stop-color="#FF007B"/>
</linearGradient>
<linearGradient id="paint7_linear_811_170" x1="85.47" y1="20.0601" x2="89.62" y2="20.0601" gradientUnits="userSpaceOnUse">
<stop stop-color="#FF9600"/>
<stop offset="1" stop-color="#FF007B"/>
</linearGradient>
<clipPath id="clip0_811_170">
<rect width="50.86" height="63.29" fill="white" transform="translate(63)"/>
</clipPath>
</defs>
</svg>
