<svg width="72" height="68" viewBox="0 0 72 68" fill="none" xmlns="http://www.w3.org/2000/svg">
<g filter="url(#filter0_d_723_943)">
<path d="M47.7504 20.3517C44.7052 17.2165 39.7513 17.2165 36.7069 20.3517L35.9997 21.0795L35.293 20.3517C32.2486 17.2161 27.2943 17.2161 24.2499 20.3517C21.2673 23.4233 21.2479 28.2921 24.205 31.6773C26.902 34.7637 34.8562 41.4318 35.1937 41.714C35.4228 41.9058 35.6985 41.9992 35.9725 41.9992C35.9816 41.9992 35.9907 41.9992 35.9993 41.9988C36.2828 42.0124 36.5684 41.9122 36.8049 41.714C37.1424 41.4318 45.0975 34.7637 47.7953 31.6769C50.752 28.2921 50.7326 23.4233 47.7504 20.3517ZM45.9575 29.9739C43.8547 32.3796 38.0745 37.3413 35.9993 39.102C33.9241 37.3418 28.1452 32.3805 26.0428 29.9743C23.98 27.6131 23.9606 24.2504 25.9979 22.1523C27.0384 21.0812 28.4048 20.5453 29.7713 20.5453C31.1377 20.5453 32.5041 21.0808 33.5446 22.1523L35.099 23.7531C35.284 23.9436 35.5172 24.0573 35.762 24.0972C36.1592 24.1851 36.5902 24.0709 36.8993 23.7535L38.4545 22.1523C40.5358 20.0097 43.9214 20.0101 46.0016 22.1523C48.0389 24.2504 48.0195 27.6131 45.9575 29.9739Z" fill="#FD3D60"/>
</g>
<defs>
<filter id="filter0_d_723_943" x="0" y="0" width="72" height="68" filterUnits="userSpaceOnUse" color-interpolation-filters="sRGB">
<feFlood flood-opacity="0" result="BackgroundImageFix"/>
<feColorMatrix in="SourceAlpha" type="matrix" values="0 0 0 0 0 0 0 0 0 0 0 0 0 0 0 0 0 0 127 0" result="hardAlpha"/>
<feOffset dy="4"/>
<feGaussianBlur stdDeviation="11"/>
<feComposite in2="hardAlpha" operator="out"/>
<feColorMatrix type="matrix" values="0 0 0 0 0.992157 0 0 0 0 0.239216 0 0 0 0 0.376471 0 0 0 1 0"/>
<feBlend mode="normal" in2="BackgroundImageFix" result="effect1_dropShadow_723_943"/>
<feBlend mode="normal" in="SourceGraphic" in2="effect1_dropShadow_723_943" result="shape"/>
</filter>
</defs>
</svg>
