<svg width="35" height="35" viewBox="0 0 35 35" fill="none" xmlns="http://www.w3.org/2000/svg">
<g clip-path="url(#clip0_735_1808)">
<path d="M1.45833 8.75016H33.5417C33.9284 8.75016 34.2994 8.59651 34.5729 8.32302C34.8464 8.04953 35 7.6786 35 7.29183C35 6.90505 34.8464 6.53412 34.5729 6.26063C34.2994 5.98714 33.9284 5.8335 33.5417 5.8335H1.45833C1.07156 5.8335 0.700627 5.98714 0.427136 6.26063C0.153645 6.53412 0 6.90505 0 7.29183C0 7.6786 0.153645 8.04953 0.427136 8.32302C0.700627 8.59651 1.07156 8.75016 1.45833 8.75016Z" fill="#FF6433"/>
<path d="M25.875 17H1.125C0.826631 17 0.540483 17.158 0.329505 17.4393C0.118526 17.7206 0 18.1022 0 18.5C0 18.8978 0.118526 19.2794 0.329505 19.5607C0.540483 19.842 0.826631 20 1.125 20H25.875C26.1734 20 26.4595 19.842 26.6705 19.5607C26.8815 19.2794 27 18.8978 27 18.5C27 18.1022 26.8815 17.7206 26.6705 17.4393C26.4595 17.158 26.1734 17 25.875 17Z" fill="#FF6433"/>
<path d="M16.2917 29H0.708333C0.520472 29 0.340304 29.158 0.207466 29.4393C0.0746278 29.7206 0 30.1022 0 30.5C0 30.8978 0.0746278 31.2794 0.207466 31.5607C0.340304 31.842 0.520472 32 0.708333 32H16.2917C16.4795 32 16.6597 31.842 16.7925 31.5607C16.9254 31.2794 17 30.8978 17 30.5C17 30.1022 16.9254 29.7206 16.7925 29.4393C16.6597 29.158 16.4795 29 16.2917 29Z" fill="#FF6433"/>
</g>
<defs>
<clipPath id="clip0_735_1808">
<rect width="35" height="35" fill="white"/>
</clipPath>
</defs>
</svg>
