<svg width="350" height="278" viewBox="0 0 350 278" fill="none" xmlns="http://www.w3.org/2000/svg">
<g clip-path="url(#clip0_813_173)">
<path d="M338.45 9.8724C338.36 8.59517 337.956 7.36002 337.273 6.27695C336.467 4.92998 335.077 4.28301 333.826 3.43452C332.176 2.36981 330.31 1.68512 328.364 1.42998C327.039 1.06959 325.682 0.838703 324.312 0.740582C320.674 0.559077 317.027 0.847826 313.462 1.59967C306.133 3.01 299.008 5.32573 292.25 8.49361C285.505 11.6754 279.141 15.133 273.87 20.4891C271.594 22.7597 269.718 25.399 268.323 28.2951C267.177 30.7451 265.968 33.7997 266.594 36.5466C266.695 37.1264 266.918 37.6779 267.249 38.1644C267.58 38.6509 268.011 39.0612 268.514 39.3679C268.059 39.7218 267.636 40.1158 267.252 40.5451C265.958 41.8391 263.985 43.3982 263.242 45.0739C262.971 45.5401 262.894 46.0946 263.029 46.617C263.164 47.1393 263.5 47.5872 263.964 47.8633C265.226 48.4891 267.326 47.5769 268.514 47.1527C269.53 46.6253 270.596 46.199 271.695 45.88C271.001 47.6052 271.001 49.5321 271.695 51.2573C271.931 51.7809 272.294 52.2369 272.752 52.5835C273.21 52.9301 273.747 53.156 274.315 53.2406C274.051 54.0949 273.99 54.9992 274.137 55.8813C274.285 56.7634 274.636 57.5988 275.164 58.3209C274.903 58.6859 274.745 59.1147 274.708 59.5618C274.592 60.9426 274.919 62.3243 275.641 63.5072C277.041 65.9254 279.141 68.5239 282.142 68.683C285.536 68.8633 289.344 67.8982 292.632 67.1133C296.482 66.2012 300.247 64.9921 304.023 63.836C307.798 62.68 311.648 61.7148 315.403 60.3042C319.158 58.8936 323.071 57.2921 326.847 55.6163C333.953 52.4345 341.218 48.6588 346.532 42.8891C347.784 41.7067 348.786 40.2859 349.48 38.7103C349.95 36.9276 349.987 35.0584 349.586 33.2588C349.003 29.9921 347.465 27.4785 344.485 26.4497C344.718 25.9366 344.906 25.4043 345.047 24.8588C345.439 23.4741 345.457 22.0103 345.1 20.6163C344.673 19.4704 344.016 18.4237 343.17 17.5406C343.842 17.1532 344.422 16.6228 344.867 15.9869C345.313 15.3509 345.613 14.625 345.747 13.8603C346.171 9.55422 341.642 9.72392 338.45 9.8724ZM270.105 29.3982C271.378 26.6507 273.111 24.14 275.227 21.9739C279.894 17.0951 285.579 13.7754 291.614 10.8694C298.098 7.71192 304.914 5.28587 311.935 3.63604C312.783 3.43452 313.632 3.25422 314.47 3.09513C316.137 2.87511 317.816 2.76175 319.497 2.75573C322.453 2.64725 325.412 2.832 328.332 3.30725C329.845 3.5738 331.288 4.14384 332.574 4.98301C333.868 5.88452 335.258 6.62695 335.915 8.16482C336.296 8.89572 336.446 9.72499 336.346 10.5431C336.246 11.3611 335.899 12.1295 335.353 12.7466C334.326 14.1166 333.1 15.3249 331.715 16.3315C329.148 18.095 326.454 19.6655 323.655 21.03C318.088 23.8787 312.362 26.4036 306.505 28.5921C300.48 30.8512 294.647 33.4497 288.612 35.5709C285.706 36.6313 282.72 37.4577 279.682 38.0421C278.015 38.381 276.311 38.5093 274.612 38.4239C273.091 38.5097 271.566 38.334 270.105 37.9042C267.029 36.5254 269.097 31.6148 270.105 29.3982ZM282.694 56.5815C284.893 55.9077 286.897 54.7145 288.538 53.1027C289.352 52.4788 290.068 51.735 290.659 50.8966C291.662 51.0146 292.678 50.9353 293.65 50.6633L293.862 50.5997C293.195 51.8136 292.352 52.9216 291.359 53.8876C289.48 55.4491 287.283 56.582 284.921 57.2073C282.864 57.833 280.679 58.7982 278.558 58.2679C277.742 58.1717 276.994 57.7636 276.473 57.129C275.951 56.4944 275.694 55.6825 275.758 54.8633C275.758 54.3224 275.758 53.8027 275.758 53.2618C276.047 53.2293 276.334 53.1762 276.617 53.1027C277.158 52.9648 277.677 52.7209 278.208 52.5618C277.667 55.383 279.682 57.2921 282.694 56.5815ZM278.632 52.4663C279.106 52.3523 279.604 52.3932 280.053 52.583C280.833 53.0986 281.723 53.4254 282.652 53.5376C283.812 53.4942 284.928 53.0776 285.833 52.3497C286.324 51.9951 286.785 51.6014 287.212 51.1724C287.52 50.8542 287.817 50.186 288.198 49.8148C288.534 50.0555 288.889 50.2683 289.259 50.4512C289.047 50.6845 288.845 50.9179 288.602 51.1406C287.587 52.0816 286.525 52.9702 285.42 53.8027C283.108 55.5103 278.208 56.9103 278.632 52.4663ZM347.698 35.1572C347.955 36.6935 347.601 38.2692 346.712 39.5482C345.846 40.7641 344.888 41.9128 343.848 42.9845C339.288 47.6512 333.094 50.9285 327.208 53.5906C321.644 56.2432 315.932 58.5733 310.1 60.5694C307.13 61.5239 304.086 62.1497 301.127 63.1679C298.168 64.186 295.464 65.0345 292.579 65.7663C290.776 66.221 288.949 66.5751 287.106 66.827C285.501 67.1984 283.85 67.3342 282.206 67.23C279.82 66.8376 275.238 62.0754 276.309 59.2436C278.186 60.1655 280.352 60.3066 282.333 59.636C287.403 58.1618 293.926 55.3936 295.803 50.0906C298.635 53.7497 305.221 53.0285 308.976 51.4906C311.786 50.3451 316.782 47.1103 316.941 43.4936C320.462 46.2406 325.638 44.9466 329.467 43.08C331.444 42.0971 333.075 40.5361 334.144 38.6042C334.783 37.4151 335.07 36.0686 334.971 34.7224C337.389 35.2315 339.288 35.4436 341.674 33.7997C343.552 32.5057 345.185 30.83 344.315 28.5815C345.08 28.9878 345.74 29.5648 346.245 30.2679C347.123 31.7541 347.622 33.4331 347.698 35.1572ZM304.458 48.5739C305.877 48.9278 307.375 48.7818 308.7 48.1603C310.471 47.3118 312.402 45.7527 312.826 43.7906C313.775 43.5597 314.672 43.1493 315.467 42.5815C315.478 43.5371 315.181 44.4709 314.618 45.2436C314.016 46.0487 313.302 46.763 312.497 47.3648C310.973 48.6175 309.258 49.6167 307.417 50.3239C303.98 51.5754 299.091 51.5754 295.877 49.6663C296.183 49.4613 296.474 49.2344 296.747 48.9876C297.142 48.5882 297.497 48.1513 297.808 47.683C298.306 47.0466 298.359 46.8239 299.218 46.9512C300.16 47.1761 301.124 47.297 302.092 47.3118C302.788 47.8875 303.592 48.3168 304.458 48.5739ZM303.397 47.0785C304.447 46.822 305.439 46.3724 306.324 45.7527C307.385 45.0209 307.979 43.6315 309.336 43.727C310.153 43.727 310.832 43.9179 311.564 43.9391C311.477 44.1795 311.359 44.4077 311.214 44.6179C310.326 45.8484 309.109 46.8041 307.703 47.3754C306.908 47.6254 306.071 47.7085 305.242 47.6194C304.583 47.5509 303.94 47.3679 303.344 47.0785H303.397ZM316.623 41.5951C316.938 41.2423 317.222 40.8626 317.471 40.4603C317.853 39.8345 317.842 39.6118 318.415 39.6648C319.656 40.3436 320.738 41.2982 322.202 41.4254C325.01 41.2705 327.698 40.231 329.88 38.4557C330.21 38.0972 330.441 37.6583 330.548 37.183C330.575 36.7981 330.575 36.4118 330.548 36.0269C331.284 35.8867 331.998 35.6477 332.67 35.3163C333.01 35.1388 333.34 34.9404 333.656 34.7224C333.603 35.4118 333.539 36.4618 333.55 36.4194C333.293 37.5421 332.727 38.5706 331.917 39.3891C330.757 40.7605 329.252 41.7969 327.558 42.3906C324.047 43.6103 320.314 44.5966 316.952 42.6663C316.909 42.3256 316.816 41.9931 316.676 41.68C316.646 41.6454 316.61 41.6166 316.57 41.5951H316.623ZM319.805 39.8345C320.819 39.9707 321.851 39.8868 322.83 39.5885C323.809 39.2902 324.713 38.7844 325.479 38.1057C326.677 37.0451 327.112 35.9845 328.926 36.1436H329.477C329.483 36.2284 329.483 36.3134 329.477 36.3982C329.265 37.8406 328.417 38.18 327.186 38.7633C325.927 39.4637 324.562 39.9544 323.145 40.2163C321.992 40.2766 320.838 40.1403 319.73 39.8133L319.805 39.8345ZM334.929 34.1073C334.899 33.9945 334.86 33.8845 334.812 33.7785C335.034 33.5652 335.243 33.3385 335.438 33.0997C336.085 32.3254 336.498 31.1163 337.612 30.8194C338.27 30.6497 339.033 30.8194 339.733 30.6072C340.931 30.3188 342.03 29.7145 342.915 28.8572C343.202 31.0951 341.664 32.5376 339.733 33.5451C338.193 34.1898 336.501 34.3847 334.855 34.1073H334.929ZM343.647 21.9739C343.73 23.8958 343.107 25.7817 341.897 27.2769C340.433 29.1436 338.715 28.8466 336.689 29.3133C335.406 29.6103 334.908 30.7133 334.08 31.6466C333.504 32.3956 332.782 33.0203 331.958 33.4833C331.135 33.9462 330.226 34.2378 329.286 34.3406C327.748 34.4042 326.741 33.6194 325.606 34.9239C324.302 36.43 323.22 37.7027 321.077 37.9679C319.826 38.1163 318.542 37.1512 317.376 37.533C316.008 37.9785 315.414 40.0679 314.289 40.9057C312.592 42.1785 311.108 42.0936 309.145 41.7754C308.733 41.6686 308.298 41.6965 307.903 41.8549C307.508 42.0133 307.174 42.2939 306.95 42.6557C305.824 44.1797 304.186 45.2456 302.336 45.6573C301.371 45.8263 300.378 45.746 299.452 45.4239C299.085 45.2941 298.693 45.247 298.306 45.286C297.182 45.4982 296.779 46.7603 295.973 47.4073C294.611 48.4784 292.942 49.0843 291.211 49.136C291.12 49.0565 291.007 49.0075 290.887 48.9961C290.767 48.9847 290.646 49.0114 290.542 49.0724C289.567 48.8073 288.941 47.7573 287.891 48.0118C286.533 48.33 285.642 50.2709 284.518 51.0239C284.029 51.3788 283.45 51.5872 282.847 51.6248C282.244 51.6623 281.643 51.5275 281.114 51.236C280.63 50.949 280.098 50.7514 279.544 50.6527C278.271 50.5679 277.126 51.2997 275.917 51.5436C275.548 51.6482 275.161 51.67 274.783 51.6073C274.405 51.5447 274.045 51.3992 273.73 51.1813C273.414 50.9633 273.151 50.6783 272.959 50.3468C272.767 50.0152 272.651 49.6452 272.618 49.2633C272.448 48.3936 272.215 46.6754 272.788 45.9012C273.7 46.1027 274.273 46.8027 275.132 47.3224C275.796 47.7394 276.556 47.9798 277.339 48.0206C278.123 48.0614 278.903 47.9014 279.608 47.5557C281.24 46.7818 282.709 45.7017 283.935 44.3739C284.671 43.628 285.474 42.95 286.332 42.3482C288.071 41.2133 289.238 42.03 290.998 42.2209C292.668 42.3817 294.346 42.0105 295.792 41.1603C297.914 39.9088 299.589 37.5648 302.008 36.9179C303.853 36.43 305.794 36.833 307.65 36.3769C309.772 35.7583 311.705 34.6169 313.271 33.0573C314.046 32.2451 314.953 31.5708 315.955 31.0633C317.238 30.6179 318.558 30.2878 319.9 30.0769C321.855 29.7916 323.746 29.1709 325.489 28.2421C327.377 27.0542 328.777 25.0603 330.856 24.1482C331.821 23.7451 332.861 23.8618 333.836 23.5436C334.753 23.1848 335.573 22.6185 336.233 21.8891C337.242 20.8325 338.421 19.9539 339.723 19.2906C340.412 18.9618 341.123 18.6648 341.844 18.3254C342.48 19.5133 343.435 20.4785 343.573 21.9739H343.647ZM341.515 16.48C339.967 17.4345 338.164 17.8588 336.668 18.9194C335.173 19.98 334.261 21.5497 332.298 21.9209C330.799 22.1037 329.367 22.6538 328.13 23.5224C326.752 24.5194 325.659 25.8663 324.238 26.7997C321.12 28.9209 316.877 28.3588 313.78 30.5224C312.55 31.3921 311.564 32.5588 310.302 33.3966C308.553 34.56 306.482 35.1426 304.383 35.0618C302.947 34.9432 301.502 35.1275 300.141 35.6027C298.549 36.4835 297.067 37.5517 295.729 38.7845C295.022 39.3772 294.204 39.8216 293.322 40.0913C292.44 40.3609 291.513 40.4504 290.595 40.3542C288.952 40.1421 287.795 39.6648 286.183 40.4391C283.15 41.9239 281.368 45.7421 277.942 46.4103C275.821 46.8239 274.973 44.8194 273.159 44.3951C271.685 44.2107 270.192 44.5243 268.917 45.286C267.931 45.8339 266.852 46.1935 265.735 46.3466C265.109 46.3466 264.367 47.3012 265.162 45.1588C265.3 44.7663 265.83 44.3421 266.095 44.0133C266.668 43.3133 267.252 42.6239 267.856 41.8921C268.38 41.1836 268.998 40.5486 269.691 40.0042C270.568 40.2424 271.467 40.3882 272.374 40.4391C275.837 40.7092 279.321 40.4228 282.694 39.5906C289.736 37.9466 296.609 34.8921 303.217 32.0072C310.344 28.8997 317.609 26.1421 324.514 22.5148C327.597 21.035 330.555 19.3076 333.359 17.3497C335.13 16.0027 337.421 13.9451 338.185 11.6542C339.556 11.5556 340.934 11.6233 342.289 11.8557C345.492 12.683 343.042 15.483 341.515 16.48Z" fill="url(#paint0_linear_813_173)"/>
</g>
<g clip-path="url(#clip1_813_173)">
<path d="M11.7409 109.909C12.8758 108.148 13.6182 106.282 15.1879 104.828C16.2485 103.821 17.6591 103.142 18.5606 101.922C19.502 100.394 20.3451 98.8067 21.0849 97.1709C22.9197 93.9361 26.3242 92.3027 28.5091 89.3861C29.3568 88.2497 30.0687 87.0181 30.6303 85.7164C31.2018 83.9592 31.9111 82.2498 32.7515 80.6043C34.8727 77.327 38.9136 75.5452 41.4379 72.5861C43.5061 70.1785 45.2879 67.58 45.6803 64.3558C46.0477 61.1243 45.5155 57.8541 44.1424 54.9058C43.8667 54.3225 43.5909 53.7497 43.2833 53.2088C44.5291 52.0922 45.6852 50.8794 46.7409 49.5815C48.2819 48.0353 49.6575 46.3327 50.8455 44.5012C51.4394 43.4406 52.0015 42.4437 52.6591 41.4573C53.0267 41.0092 53.304 40.4942 53.4757 39.9406C53.656 38.9649 53.1151 38.5406 52.4151 38.1906L53.4757 37.077C55.8584 34.8415 57.8863 32.2557 59.4894 29.4088C60.2424 27.9134 61.8121 25.1664 60.3909 23.5437C59.1182 22.1119 55.8091 22.2709 54.2924 23.0134C51.747 24.2437 50.4636 28.1043 49.0848 30.3527C47.7061 32.6012 46.4121 34.4891 45.1076 36.5679C45.9985 34.5846 46.8894 32.6118 47.8333 30.6603C49.319 27.6586 50.3894 24.4688 51.0152 21.1785C51.4182 18.9618 51.6303 16.9361 48.7879 16.5967C46.1894 16.3421 44.6409 18.3361 44.2379 20.6376C43.75 23.4058 43.3045 26.0997 42.6576 28.8149C41.4485 28.4649 39.953 28.2952 39.0197 29.0906C37.6939 30.2149 37.0364 32.9831 36.453 34.5422C35.6894 36.6634 35.053 38.6891 34.4591 40.7997C33.8231 42.5765 33.4342 44.4323 33.303 46.3149C30.1567 46.2178 27.0513 47.0477 24.3727 48.7012C21.8505 50.2958 19.9725 52.7298 19.0697 55.574C18.4758 57.1224 18.0091 58.7558 17.5106 60.3043C16.7705 62.1762 15.5305 63.8088 13.9258 65.024C11.5288 67.1452 9.68334 69.0543 8.99395 72.2361C8.30456 75.4179 8.42121 78.8543 7.02121 81.9406C5.86515 84.5179 4.07274 86.83 3.69092 89.7043C3.22425 93.1937 3.41513 96.5346 2.33331 99.9603C1.38937 102.972 -0.137897 105.762 -0.0848671 108.997C-0.0848671 111.118 0.63635 114.215 2.70453 115.36C4.77271 116.506 7.31817 114.798 8.83483 113.324C9.93368 112.303 10.909 111.157 11.7409 109.909ZM52.0439 40.2906C51.6986 40.9169 51.2861 41.5037 50.8136 42.0406C49.9889 43.4881 49.0452 44.8646 47.9924 46.1558C46.9318 47.2906 45.8076 48.277 44.7576 49.3376C44.0173 50.1646 43.2083 50.9274 42.3394 51.6179C42.084 51.249 41.8078 50.8948 41.5121 50.5573C42.2121 50.2179 42.5727 49.6133 43.0606 48.8815C44.047 47.5346 45.1818 46.2512 46.2424 44.9785C48.0349 42.8573 49.9651 40.7997 51.8954 38.774C52.0469 38.9932 52.1408 39.247 52.1686 39.512C52.1964 39.777 52.1571 40.0447 52.0545 40.2906H52.0439ZM51.9485 28.5709C52.5271 27.2502 53.2682 26.0068 54.1545 24.8694C55.0667 23.9467 58.0682 23.5225 59.1606 24.477C60.8576 25.9513 57.3364 30.8406 56.3076 32.1134C54.5788 34.3194 52.4682 36.2073 50.5485 38.2543C48.6288 40.3012 46.5712 42.274 44.747 44.4164C43.3152 46.1134 42.0106 47.8952 40.6318 49.6346C40.2979 49.3313 39.9435 49.0514 39.5712 48.7967L39.9424 48.0331C40.4409 47.3649 41.2045 46.1134 41.2788 45.9118C41.8833 44.7558 42.5303 43.6103 43.2303 42.5073C44.6409 40.2694 45.9666 37.9785 47.4091 35.7618C48.8515 33.5452 50.5697 31.0528 51.9591 28.5709H51.9485ZM45.4364 23.3846C45.6697 21.9316 45.5955 20.4467 46.497 19.2058C47.2076 18.1452 48.6182 17.4664 49.6788 18.5482C50.4955 19.4179 50.103 20.4043 49.8803 21.5815C49.6055 22.9758 49.2514 24.3533 48.8197 25.7073C47.7946 28.5899 46.5757 31.3999 45.1712 34.1179C43.9303 36.7588 42.6894 39.4209 41.3848 42.0194C40.2309 43.9412 39.2479 45.9606 38.447 48.0543L37.8106 47.7679L37.5242 47.6618C40.4833 44.2467 41.6288 39.177 42.7 34.9346C43.3576 32.3255 44.1742 29.727 44.7576 27.0861C44.9591 25.877 45.2348 24.6255 45.4364 23.3846ZM36.8985 37.671C37.3439 36.1861 37.9061 34.7543 38.4894 33.3225C38.9773 32.1558 39.3909 30.374 40.6636 29.7588C41.2731 29.5659 41.9151 29.4974 42.5515 29.5573L42.4879 29.8437C41.703 32.9088 41.1091 36.0164 40.1227 39.0285C39.574 40.8604 38.9117 42.6563 38.1394 44.4058C37.6833 45.3709 37.0788 46.2513 36.6333 47.2164C36.1667 46.959 35.6721 46.7562 35.1591 46.6119C35.1631 46.5766 35.1631 46.541 35.1591 46.5058C35.5072 43.5207 36.0852 40.567 36.8879 37.671H36.8985ZM4.38031 113.685C2.6091 113.472 2.14243 110.651 2.08939 109.283C1.99394 106.695 3.09696 104.425 3.96666 102.06C5.59999 103.842 7.84847 106.303 10.3303 106.186C10.4709 106.204 10.6131 106.166 10.7255 106.08C10.8378 105.993 10.9113 105.865 10.9295 105.725C10.9478 105.584 10.9095 105.442 10.823 105.33C10.7364 105.217 10.6088 105.144 10.4682 105.125C9.3642 104.838 8.29668 104.425 7.28636 103.895C6.16621 103.206 5.10228 102.429 4.10454 101.572L4.16817 101.413C5.00255 98.9631 5.50898 96.4132 5.67425 93.83C5.7697 92.5043 5.67425 91.1361 5.87577 89.8103C6.17717 88.3492 6.72597 86.9503 7.49849 85.674L7.94393 84.8361C8.86289 86.4651 10.1356 87.8672 11.6683 88.9392C13.201 90.0111 14.9546 90.7256 16.8 91.03C16.8344 91.0377 16.8705 91.0318 16.9007 91.0137C16.931 90.9956 16.9532 90.9666 16.9627 90.9326C16.9722 90.8987 16.9683 90.8623 16.9519 90.8311C16.9354 90.7999 16.9076 90.7762 16.8742 90.7649C14.7753 89.787 12.8764 88.4276 11.2742 86.7558C10.6803 86.1937 10.2667 85.4831 9.70454 84.8891C9.32272 84.4861 8.90908 84.1043 8.50605 83.7118C9.27308 82.2209 9.8231 80.6281 10.1394 78.9815C10.5742 76.3724 10.3727 73.6785 11.2742 71.1119C11.73 69.9037 12.4555 68.8154 13.3955 67.93C13.3303 68.8354 13.4642 69.7441 13.7879 70.5921C14.5305 72.2005 15.546 73.6681 16.7894 74.93C19.1227 77.2209 23.0258 78.4088 26.1864 78.8225C26.7061 78.8861 26.7485 78.1119 26.303 77.9634C23.3439 76.9558 19.5894 75.7149 17.4682 73.3073C16.4759 72.1871 15.6115 70.9598 14.8909 69.6482C14.5648 68.8665 14.3093 68.0572 14.1273 67.23C15.4893 66.1484 16.7432 64.9372 17.8712 63.6134C19.3349 61.6725 19.7909 59.1376 20.5227 56.8149C20.5677 57.2096 20.6458 57.5999 20.7561 57.9816C21.2015 59.6715 22.0829 61.2149 23.3121 62.4573C25.6879 64.8013 29.6757 66.827 33.0909 66.7528C33.5894 66.7528 33.7485 65.9467 33.2076 65.8618C29.7975 65.2249 26.655 63.5854 24.1818 61.1528C23.0201 59.8691 22.1963 58.3163 21.7849 56.6346C21.594 55.9664 21.5833 55.1603 21.4348 54.4285C21.995 53.1041 22.8642 51.933 23.9697 51.0134C25.4566 49.8609 27.1276 48.968 28.9121 48.3725C29.4 48.2028 29.9197 48.0437 30.45 47.9058C32.5265 47.9602 34.574 48.4064 36.4848 49.2209C39.3167 50.3664 40.7273 52.6255 42.106 55.2558C43.348 57.6869 43.9399 60.398 43.8242 63.1255C43.1194 63.0559 42.4112 63.0276 41.703 63.0406C39.9283 62.8312 38.1798 62.4403 36.4848 61.874C33.2394 60.8982 30.9273 57.6952 29.4848 54.8103C29.4848 54.8103 29.3894 54.8103 29.4 54.8103C30.6091 58.0876 32.2 61.6088 35.5409 63.2103C36.8985 63.8679 41.353 65.671 43.6227 65.0134C42.9435 67.4533 41.6762 69.6893 39.9318 71.5255C38.9612 72.598 37.8963 73.5812 36.75 74.4633C36.7027 74.3645 36.6339 74.2775 36.5485 74.2088C35.2227 73.2331 32.9743 73.2437 31.4258 72.7346C29.0347 71.8856 26.8305 70.5818 24.9349 68.8952C24.9208 68.8811 24.9017 68.8732 24.8818 68.8732C24.8619 68.8732 24.8429 68.8811 24.8288 68.8952C24.8147 68.9092 24.8068 68.9283 24.8068 68.9482C24.8068 68.9681 24.8147 68.9872 24.8288 69.0012C27.7136 72.5331 31.3091 74.2088 35.5833 75.3649C34.6924 76.0755 33.7909 76.7861 32.9424 77.5603C30.8955 79.4376 30.1106 81.6967 29.0712 84.1679C28.4349 84.1679 27.7349 84.2209 27.1515 84.1679C26.0909 84.0619 25.0303 84.0088 23.9061 83.8497C22.1374 83.6143 20.4425 82.9914 18.9424 82.0255C17.3537 80.7974 15.928 79.3718 14.7 77.783C14.6045 77.677 14.4242 77.7831 14.4985 77.9315C15.7924 79.9255 16.7682 81.9512 18.6242 83.4785C20.1093 84.6069 21.8581 85.337 23.7046 85.5997C25.1733 85.8997 26.671 86.0349 28.1697 86.0027C26.9736 88.0283 25.4256 89.8241 23.5985 91.3058C21.4948 93.0339 19.821 95.2268 18.7091 97.7118C18.3591 98.4649 18.0197 99.2391 17.6485 99.9709C17.5689 99.9264 17.4831 99.8943 17.3939 99.8755C15.5273 99.5043 13.5864 99.5573 11.8046 98.8149C9.51003 97.9952 7.53453 96.469 6.16212 94.4558C6.16212 94.4558 6.03485 94.4558 6.06667 94.5088C8.05 98.8679 11.9849 100.947 16.5136 101.541L16.4394 101.625C15.2468 102.566 14.1067 103.572 13.0242 104.638C11.147 106.865 10.1076 109.538 7.97575 111.606C7.09544 112.391 5.67424 113.844 4.36969 113.685H4.38031Z" fill="url(#paint1_linear_813_173)"/>
</g>
<g clip-path="url(#clip2_813_173)">
<path d="M344.858 188.307C343.15 184.191 341.617 179.901 339.696 175.862C338.648 173.621 337.562 171.515 336.708 169.196C336.406 167.976 335.843 166.836 335.058 165.853C332.866 163.805 328.558 166.297 326.287 167.051C321.786 168.539 317.342 170.123 312.859 171.631C306.262 173.853 299.645 176.094 293.047 178.413C289.244 179.624 285.447 180.874 281.657 182.162C264.697 187.824 248.164 194.606 231.476 200.983C223.754 203.737 216.211 206.963 208.889 210.645C206.192 212.075 203.456 213.176 202.214 216.094C200.972 219.012 201.69 222.104 202.214 225.215C203.667 232.447 206.581 239.311 210.777 245.389C214.973 251.468 220.364 256.635 226.625 260.577C240.86 269.468 256.924 275.049 273.623 276.905C289.648 279.108 305.954 275.969 320 267.978C332.73 260.673 341.772 247.282 346.527 233.698C351.66 218.887 351.065 202.704 344.858 188.307ZM233.688 204.036C249.93 197.64 265.978 190.819 282.472 185.08L288.409 182.993C293.396 181.273 298.383 179.553 303.39 177.949C309.638 176.017 315.887 173.93 322.154 171.998C326.559 175.862 328.325 182.278 329.8 187.65C331.566 194.085 333.933 200.423 333.875 207.186C333.758 220.249 328.597 234.065 318.351 242.587C308.105 251.108 292.989 254.586 279.774 253.987C267.045 253.427 255.111 247.166 245.195 239.533C239.113 235.145 233.667 229.944 229.012 224.075C225.596 219.476 222.259 214.819 219.076 210.065C223.889 207.901 228.798 205.968 233.688 204.036ZM282.976 274.335C275.165 274.015 267.407 272.895 259.826 270.992C251.991 269.342 244.4 266.699 237.239 263.127C223.966 256.19 213.003 246.471 207.899 232.055C206.89 229.008 206.188 225.869 205.804 222.683C205.359 221.045 205.468 219.307 206.114 217.736C208.055 221.195 210.48 224.345 212.828 227.649C215.853 232.318 219.33 236.68 223.21 240.674C227.784 244.765 232.684 248.481 237.86 251.785C242.576 254.973 247.252 258.239 252.22 261.06C261.65 266.393 272.129 270.838 282.996 272.074C289.221 272.747 295.503 272.715 301.721 271.978L302.905 271.842C296.416 273.621 289.705 274.461 282.976 274.335ZM345.653 222.413C343.259 236.698 336.192 249.796 325.55 259.669C322.46 262.457 319.039 264.858 315.363 266.818C303.972 269.214 292.581 270.799 280.939 268.499C270.634 266.346 260.785 262.423 251.832 256.905C242.517 251.359 232.272 245.311 224.549 237.582C218.067 231.128 213.663 222.703 207.414 216.152C208.873 215.089 210.441 214.182 212.091 213.447C214.128 212.365 216.205 211.36 218.32 210.394C223.97 221.532 231.856 231.397 241.489 239.379C251.638 247.823 263.94 255.089 277.349 256.384C291.417 257.736 307.31 254.355 318.758 245.814C329.78 237.582 335.33 224.403 336.553 211.031C337.329 202.741 334.981 195.36 332.672 187.515C331.022 181.872 329.334 175.341 325.065 171.012C327.471 170.104 331.876 168.114 333.06 169.563C333.742 170.943 334.288 172.386 334.69 173.872C335.582 175.804 336.63 177.582 337.406 179.515C343.034 193.524 348.195 207.089 345.653 222.413Z" fill="url(#paint2_linear_813_173)"/>
<path d="M256.004 203.592C254.908 204.6 253.907 205.706 253.015 206.896C252.147 207.801 251.486 208.882 251.075 210.065C250.59 211.572 252.258 212.403 253.462 211.901C254.038 211.57 254.519 211.098 254.859 210.529C255.304 210.053 255.718 209.549 256.101 209.022C256.552 208.319 256.948 207.583 257.284 206.819C257.66 206.219 257.947 205.568 258.138 204.886C258.213 204.615 258.197 204.328 258.093 204.066C257.988 203.805 257.802 203.585 257.56 203.438C257.319 203.292 257.037 203.228 256.756 203.256C256.475 203.283 256.211 203.401 256.004 203.592Z" fill="url(#paint3_linear_813_173)"/>
<path d="M265.26 209.215C264.425 211.263 262.97 212.944 262.233 215.012C261.767 216.345 261.767 219.166 263.96 218.877C264.386 218.825 264.783 218.633 265.089 218.333C265.394 218.032 265.591 217.639 265.648 217.215C265.659 217.144 265.659 217.073 265.648 217.002C265.648 216.712 265.648 216.403 265.803 216.113C265.958 215.823 265.997 215.147 266.133 214.683C266.783 212.987 267.27 211.234 267.588 209.447C267.763 208.075 265.725 208.075 265.26 209.215Z" fill="url(#paint4_linear_813_173)"/>
<path d="M281.404 218.452C281.304 217.573 281.258 216.689 281.269 215.804L280.919 212.21C280.908 211.909 280.79 211.622 280.586 211.4C280.383 211.177 280.106 211.034 279.807 210.994C279.507 210.955 279.203 211.023 278.949 211.185C278.694 211.347 278.505 211.594 278.416 211.882C278.116 212.699 277.882 213.539 277.717 214.394C277.601 215.244 277.543 216.094 277.465 216.944C277.291 218.529 277.368 220.056 278.959 220.809C279.294 220.975 279.671 221.033 280.04 220.976C280.409 220.919 280.751 220.75 281.019 220.492C281.287 220.233 281.468 219.898 281.537 219.533C281.606 219.167 281.56 218.79 281.404 218.452Z" fill="url(#paint5_linear_813_173)"/>
<path d="M297.394 214.683C296.54 213.736 295.764 212.751 294.91 211.804C294.493 211.344 294.017 210.941 293.493 210.606C292.931 210.278 292.252 210.239 291.689 209.93C291.456 209.787 291.178 209.735 290.908 209.784C290.639 209.834 290.398 209.981 290.231 210.197C290.064 210.414 289.984 210.684 290.006 210.956C290.028 211.228 290.151 211.482 290.35 211.669C290.738 212.055 291.281 212.287 291.65 212.693C292.037 213.149 292.369 213.648 292.64 214.181C293.227 215.296 293.923 216.351 294.716 217.331C296.288 219.147 298.946 216.48 297.394 214.683Z" fill="url(#paint6_linear_813_173)"/>
<path d="M308.455 202.819C307.039 202.294 305.541 202.026 304.03 202.027C302.614 201.911 301.294 201.64 299.916 201.408C299.592 201.321 299.246 201.366 298.955 201.533C298.664 201.699 298.452 201.974 298.364 202.297C298.277 202.62 298.321 202.964 298.489 203.254C298.656 203.544 298.932 203.756 299.257 203.843C302.226 204.635 304.865 206.413 308.066 205.775C308.379 205.697 308.661 205.526 308.875 205.286C309.09 205.046 309.227 204.747 309.269 204.428C309.31 204.11 309.255 203.786 309.11 203.499C308.965 203.212 308.736 202.975 308.455 202.819Z" fill="url(#paint7_linear_813_173)"/>
<path d="M309.89 189.911C308.613 189.974 307.351 190.221 306.145 190.645C304.349 191.11 302.529 191.478 300.693 191.746C300.506 191.796 300.342 191.905 300.224 192.057C300.107 192.209 300.043 192.395 300.043 192.587C300.043 192.779 300.107 192.965 300.224 193.117C300.342 193.269 300.506 193.378 300.693 193.428C302.827 193.733 304.99 193.779 307.135 193.563C308.532 193.428 310.376 193.389 311.016 191.92C311.129 191.719 311.188 191.492 311.188 191.262C311.188 191.031 311.128 190.804 311.016 190.603C310.903 190.402 310.74 190.232 310.543 190.111C310.346 189.99 310.122 189.921 309.89 189.911Z" fill="url(#paint8_linear_813_173)"/>
<path d="M306.107 182.568C304.723 182.754 303.416 183.308 302.323 184.171C301.833 184.486 301.366 184.835 300.925 185.215C300.764 185.348 300.632 185.512 300.537 185.698C300.537 185.698 300.305 186.355 300.44 186.046C300.367 186.175 300.347 186.327 300.383 186.471C300.419 186.614 300.509 186.739 300.634 186.819C301.546 187.203 302.567 187.245 303.506 186.935C304.853 186.607 306.156 186.12 307.387 185.485C309.037 184.5 307.795 182.336 306.107 182.568Z" fill="url(#paint9_linear_813_173)"/>
<path d="M251.948 217.504C250.861 219.244 249.561 220.789 248.416 222.471C247.271 224.152 247.31 225.678 249.037 226.529C250.357 227.186 252.084 225.833 251.249 224.403L251.599 223.804L252.491 222.277C253.132 221.195 253.811 220.132 254.432 219.031C254.532 218.869 254.6 218.688 254.631 218.5C254.661 218.311 254.654 218.119 254.61 217.933C254.566 217.747 254.485 217.572 254.373 217.417C254.261 217.263 254.119 217.131 253.956 217.031C253.793 216.931 253.612 216.864 253.423 216.833C253.234 216.803 253.04 216.81 252.854 216.854C252.667 216.897 252.491 216.978 252.336 217.089C252.18 217.201 252.049 217.342 251.948 217.504Z" fill="url(#paint10_linear_813_173)"/>
<path d="M266.152 225.022C264.872 227.34 262.95 231.476 264.658 233.968C264.837 234.243 265.099 234.454 265.406 234.57C265.714 234.687 266.05 234.704 266.367 234.618C266.685 234.532 266.966 234.348 267.172 234.092C267.377 233.836 267.496 233.522 267.511 233.195C267.632 232.1 267.86 231.02 268.19 229.968C268.358 228.702 268.664 227.458 269.102 226.258C269.8 224.558 267.025 223.456 266.152 225.022Z" fill="url(#paint11_linear_813_173)"/>
<path d="M284.994 233.273C284.644 230.994 283.991 228.772 283.054 226.664C282.297 225.157 280.085 226.258 280.415 227.766C280.997 230.355 279.871 233.872 283.228 234.935C283.465 235.013 283.719 235.027 283.962 234.973C284.206 234.919 284.43 234.801 284.611 234.63C284.793 234.46 284.924 234.243 284.991 234.004C285.059 233.765 285.06 233.512 284.994 233.273Z" fill="url(#paint12_linear_813_173)"/>
<path d="M301.372 229.872C301.022 228.403 299.528 227.514 298.403 226.664C297.277 225.814 296.327 225.099 295.24 224.403C295.001 224.266 294.72 224.22 294.45 224.272C294.179 224.324 293.937 224.472 293.767 224.688C293.597 224.905 293.511 225.175 293.525 225.449C293.539 225.723 293.652 225.983 293.843 226.181C295.783 228.113 296.579 231.592 299.8 231.978C300.057 231.981 300.311 231.922 300.541 231.809C300.771 231.695 300.971 231.528 301.124 231.323C301.277 231.118 301.38 230.879 301.423 230.627C301.466 230.375 301.448 230.116 301.372 229.872Z" fill="url(#paint13_linear_813_173)"/>
<path d="M314.567 214.297C312.295 214.532 310 214.388 307.775 213.872C306.145 213.582 305.427 216.036 307.077 216.365C310.046 216.964 312.898 218.954 315.945 217.543C317.905 216.616 316.41 213.988 314.567 214.297Z" fill="url(#paint14_linear_813_173)"/>
</g>
<path d="M94.5449 233.552C99.4614 231.847 103.869 228.931 107.363 225.074C110.856 221.217 113.322 216.542 114.534 211.482C115.594 206.462 115.304 201.25 113.693 196.379C112.859 193.589 111.411 191.022 109.456 188.865C105.545 182.705 100.31 177.495 94.1315 173.615C89.7912 170.78 85.5099 167.709 81.2877 164.757C77.0655 161.804 73.4486 158.453 69.1525 155.825C61.8596 151.396 51.2597 150.761 44.4245 156.371C36.7477 162.675 35.3157 173.496 36.3639 182.871C37.5301 193.205 41.8557 202.609 47.1704 211.452C56.5597 227.145 75.7516 239.959 94.5449 233.552ZM51.7321 213.829C49.0653 210.009 46.7103 205.98 44.6902 201.782C42.5776 197.801 40.9896 193.564 39.966 189.175C38.0616 180.863 37.1315 169.584 42.4019 162.247C48.0266 154.452 58.6413 153.153 66.8347 157.7C70.4415 159.963 73.8938 162.464 77.1688 165.185C80.6086 167.739 84.2698 169.983 87.7834 172.463C91.297 174.943 95.3569 177.217 98.841 180.022C100.874 181.674 102.734 183.529 104.392 185.558C105.594 187.012 106.703 188.541 107.714 190.134C110.896 194.98 112.735 200.584 113.043 206.374C113.002 207.304 112.904 208.231 112.748 209.149C111.183 217.815 104.953 226.304 96.6855 229.714C88.3529 233.081 79.0299 233.033 70.7322 229.581C63.0259 226.688 56.6925 220.369 51.7617 213.829H51.7321Z" fill="url(#paint15_linear_813_173)"/>
<path d="M107.832 197.279C105.297 192.74 102.092 188.609 98.3243 185.026C94.557 181.097 90.3799 177.583 85.8643 174.544C81.5092 171.843 77.0065 169.746 72.9909 166.469C68.6506 162.911 64.7532 159.516 59.1875 158.172C58.6413 158.039 58.4493 158.896 58.9513 159.102C61.6578 160.084 64.2085 161.452 66.5247 163.162C68.6506 164.86 70.555 166.794 72.6809 168.492C76.3559 171.202 80.2752 173.564 84.388 175.548C88.684 178.094 92.6506 181.158 96.1984 184.672C100.52 188.398 104.275 192.735 107.344 197.545C107.551 197.767 107.965 197.53 107.832 197.279Z" fill="url(#paint16_linear_813_173)"/>
<path d="M92.921 228.134C93.5115 227.898 93.231 226.909 92.611 227.057C84.8013 228.976 75.5302 225.846 68.7982 221.963C61.9514 218.001 56.1469 212.465 51.8651 205.813C47.6281 199.096 43.9816 191.817 42.7858 183.904C42.173 180.021 42.173 176.066 42.7858 172.183C43.8525 167.501 46.45 163.308 50.1673 160.269C50.1673 160.195 50.1673 160.062 50.0492 160.136C46.7764 162.34 44.176 165.405 42.5348 168.994C40.9109 172.788 40.9404 177.217 41.0585 181.276C41.4424 190.208 45.1183 198.653 49.6801 206.211C54.127 213.543 60.4724 219.536 68.0453 223.558C74.9692 227.293 85.0819 231.235 92.921 228.134Z" fill="url(#paint17_linear_813_173)"/>
<path d="M88.3001 216.708C92.729 214.656 94.663 210.168 95.6817 205.695C96.907 200.395 94.3235 194.637 91.5628 190.223C88.7776 185.611 84.4541 182.129 79.3538 180.391C78.9109 180.214 78.4827 180.051 78.0251 179.919C76.0093 179.255 73.8729 179.039 71.765 179.286C69.657 179.533 67.6284 180.237 65.8207 181.349C64.013 182.46 62.4697 183.953 61.2985 185.723C60.1273 187.493 59.3565 189.498 59.0398 191.596C58.5759 196.405 59.9528 201.211 62.893 205.045C65.8796 209.615 69.9329 213.389 74.7034 216.044C76.7772 217.16 79.0742 217.799 81.4266 217.914C83.779 218.029 86.1274 217.617 88.3001 216.708ZM76.8293 214.302C72.9114 212.416 69.4926 209.634 66.8495 206.182C64.0445 202.875 61.3133 198.697 61.1657 194.224C61.0812 192.161 61.5121 190.109 62.4193 188.254C63.3266 186.399 64.6818 184.799 66.3624 183.599C68.0429 182.399 69.996 181.637 72.0451 181.381C74.0942 181.125 76.1748 181.383 78.0989 182.133C82.2666 183.733 85.9668 186.352 88.8611 189.751C90.2427 191.382 91.4178 193.176 92.36 195.095C93.0491 196.953 93.5439 198.878 93.8363 200.838C94.0383 203.102 93.7234 205.383 92.9153 207.509C92.1072 209.634 90.8269 211.548 89.1712 213.106C85.7609 215.999 80.8448 215.955 76.8293 214.302Z" fill="url(#paint18_linear_813_173)"/>
<defs>
<linearGradient id="paint0_linear_813_173" x1="263.03" y1="34.6906" x2="349.883" y2="34.6906" gradientUnits="userSpaceOnUse">
<stop stop-color="#FF9600"/>
<stop offset="1" stop-color="#FF007B"/>
</linearGradient>
<linearGradient id="paint1_linear_813_173" x1="-1.85841e-05" y1="66.1588" x2="60.9955" y2="66.1588" gradientUnits="userSpaceOnUse">
<stop stop-color="#FF9600"/>
<stop offset="1" stop-color="#FF007B"/>
</linearGradient>
<linearGradient id="paint2_linear_813_173" x1="201.515" y1="221.292" x2="350" y2="221.292" gradientUnits="userSpaceOnUse">
<stop stop-color="#FF9600"/>
<stop offset="1" stop-color="#FF007B"/>
</linearGradient>
<linearGradient id="paint3_linear_813_173" x1="251.017" y1="207.63" x2="258.196" y2="207.63" gradientUnits="userSpaceOnUse">
<stop stop-color="#FF9600"/>
<stop offset="1" stop-color="#FF007B"/>
</linearGradient>
<linearGradient id="paint4_linear_813_173" x1="261.98" y1="213.698" x2="267.627" y2="213.698" gradientUnits="userSpaceOnUse">
<stop stop-color="#FF9600"/>
<stop offset="1" stop-color="#FF007B"/>
</linearGradient>
<linearGradient id="paint5_linear_813_173" x1="277.388" y1="216.036" x2="281.618" y2="216.036" gradientUnits="userSpaceOnUse">
<stop stop-color="#FF9600"/>
<stop offset="1" stop-color="#FF007B"/>
</linearGradient>
<linearGradient id="paint6_linear_813_173" x1="289.962" y1="213.872" x2="297.84" y2="213.872" gradientUnits="userSpaceOnUse">
<stop stop-color="#FF9600"/>
<stop offset="1" stop-color="#FF007B"/>
</linearGradient>
<linearGradient id="paint7_linear_813_173" x1="298.345" y1="203.631" x2="309.231" y2="203.631" gradientUnits="userSpaceOnUse">
<stop stop-color="#FF9600"/>
<stop offset="1" stop-color="#FF007B"/>
</linearGradient>
<linearGradient id="paint8_linear_813_173" x1="300.072" y1="191.804" x2="311.191" y2="191.804" gradientUnits="userSpaceOnUse">
<stop stop-color="#FF9600"/>
<stop offset="1" stop-color="#FF007B"/>
</linearGradient>
<linearGradient id="paint9_linear_813_173" x1="300.382" y1="184.848" x2="308.144" y2="184.848" gradientUnits="userSpaceOnUse">
<stop stop-color="#FF9600"/>
<stop offset="1" stop-color="#FF007B"/>
</linearGradient>
<linearGradient id="paint10_linear_813_173" x1="247.718" y1="221.756" x2="254.684" y2="221.756" gradientUnits="userSpaceOnUse">
<stop stop-color="#FF9600"/>
<stop offset="1" stop-color="#FF007B"/>
</linearGradient>
<linearGradient id="paint11_linear_813_173" x1="263.979" y1="229.466" x2="269.218" y2="229.466" gradientUnits="userSpaceOnUse">
<stop stop-color="#FF9600"/>
<stop offset="1" stop-color="#FF007B"/>
</linearGradient>
<linearGradient id="paint12_linear_813_173" x1="280.473" y1="230.471" x2="285.014" y2="230.471" gradientUnits="userSpaceOnUse">
<stop stop-color="#FF9600"/>
<stop offset="1" stop-color="#FF007B"/>
</linearGradient>
<linearGradient id="paint13_linear_813_173" x1="293.513" y1="228.055" x2="301.411" y2="228.055" gradientUnits="userSpaceOnUse">
<stop stop-color="#FF9600"/>
<stop offset="1" stop-color="#FF007B"/>
</linearGradient>
<linearGradient id="paint14_linear_813_173" x1="306.145" y1="215.94" x2="316.876" y2="215.94" gradientUnits="userSpaceOnUse">
<stop stop-color="#FF9600"/>
<stop offset="1" stop-color="#FF007B"/>
</linearGradient>
<linearGradient id="paint15_linear_813_173" x1="36.0686" y1="193.766" x2="115.184" y2="193.766" gradientUnits="userSpaceOnUse">
<stop stop-color="#FF9600"/>
<stop offset="1" stop-color="#FF007B"/>
</linearGradient>
<linearGradient id="paint16_linear_813_173" x1="58.656" y1="177.896" x2="107.861" y2="177.896" gradientUnits="userSpaceOnUse">
<stop stop-color="#FF9600"/>
<stop offset="1" stop-color="#FF007B"/>
</linearGradient>
<linearGradient id="paint17_linear_813_173" x1="40.9552" y1="194.681" x2="93.2458" y2="194.681" gradientUnits="userSpaceOnUse">
<stop stop-color="#FF9600"/>
<stop offset="1" stop-color="#FF007B"/>
</linearGradient>
<linearGradient id="paint18_linear_813_173" x1="58.907" y1="198.579" x2="96.0064" y2="198.579" gradientUnits="userSpaceOnUse">
<stop stop-color="#FF9600"/>
<stop offset="1" stop-color="#FF007B"/>
</linearGradient>
<clipPath id="clip0_813_173">
<rect width="86.8424" height="68.0379" fill="white" transform="translate(263.03 0.666504)"/>
</clipPath>
<clipPath id="clip1_813_173">
<rect width="60.9955" height="99.1561" fill="white" transform="translate(0 16.5757)"/>
</clipPath>
<clipPath id="clip2_813_173">
<rect width="148.485" height="112.424" fill="white" transform="translate(201.515 165.061)"/>
</clipPath>
</defs>
</svg>
