<svg width="97" height="90" viewBox="0 0 97 90" fill="none" xmlns="http://www.w3.org/2000/svg">
<path d="M96.199 64.2395C96.199 59.6153 95.552 54.8637 92.6778 51.0774C90.0777 47.4889 86.911 44.3474 83.302 41.7759C82.3237 41.1016 81.2789 40.5294 80.1838 40.0683H80.1096H79.9823C77.9812 39.1768 75.7342 39.0008 73.6187 39.5698C72.2198 39.9285 70.9142 40.5831 69.7899 41.4895C69.1238 41.9799 68.6243 42.6629 68.3588 43.4462C68.0933 44.2295 68.0745 45.0755 68.305 45.8698C67.8119 45.8635 67.319 45.8954 66.8308 45.9652C65.024 46.2453 63.2924 46.8874 61.7399 47.8531C57.9853 49.8471 54.3793 52.0956 50.3702 53.538C48.4974 54.1095 46.7128 54.9376 45.0672 55.9986C43.2853 57.2607 41.6096 58.5971 39.7641 59.7001C37.7481 60.9301 35.6168 61.9602 33.4005 62.7759C31.9154 63.1954 30.5871 64.044 29.5823 65.2153C29.5101 65.297 29.4721 65.4033 29.4763 65.5122C28.8398 65.9468 28.3157 66.5263 27.9469 67.203C27.5781 67.8797 27.3753 68.6343 27.355 69.4046C27.2278 71.388 27.4187 73.3819 27.355 75.3759C27.1801 77.5278 27.1376 79.6884 27.2278 81.8456C27.2046 83.3488 27.6781 84.8176 28.5747 86.0244C29.7944 87.4137 31.9687 88.0395 33.7293 88.3683C38.1657 89.0645 42.6571 89.3485 47.146 89.2168C52.1944 89.2168 57.2535 89.2168 62.302 89.1213C67.0747 89.0259 71.8475 88.8137 76.5778 88.3365C81.0429 87.8804 85.805 87.785 90.1217 86.5122C93.9717 85.3668 95.1066 81.8349 95.6263 78.1546C96.1444 73.5355 96.3358 68.8856 96.199 64.2395ZM72.0384 41.8713C73.8043 40.9303 75.8575 40.6808 77.7975 41.1713C81.3717 41.9137 84.4156 44.7668 86.9187 47.238C89.2161 49.3565 91.1383 51.8489 92.6035 54.6092L92.4657 54.535C91.8937 54.159 91.2405 53.9245 90.56 53.8507C89.8795 53.777 89.1913 53.8661 88.552 54.1107C88.0268 54.3024 87.5447 54.5959 87.1333 54.9745C86.722 55.3531 86.3895 55.8093 86.155 56.3168C86.0271 56.5703 85.9172 56.8326 85.8263 57.1016C84.999 55.288 82.7399 53.9198 81.2338 52.944C77.9035 50.8228 73.8096 50.2607 70.9353 47.3334C70.3026 46.7075 69.8486 45.924 69.6202 45.0638C69.7871 44.396 70.0873 43.769 70.5029 43.2203C70.9185 42.6717 71.4408 42.2128 72.0384 41.8713ZM39.2444 61.641C42.596 59.5834 45.502 56.9213 49.3096 55.7971C52.4832 54.8411 55.494 53.4108 58.2399 51.5547C59.7884 50.5471 61.4217 49.6031 62.9384 48.6168C64.3066 47.7577 66.6929 46.4319 68.5808 46.6547C68.9335 47.4084 69.435 48.083 70.055 48.638C71.431 49.8769 72.9645 50.9289 74.6157 51.7668C76.4929 52.7107 78.6035 53.2834 80.3747 54.3971C81.7853 55.2774 85.6778 57.6956 84.2141 59.7001C83.4861 60.367 82.5392 60.7443 81.552 60.7607C79.9823 61.0153 78.3702 61.1637 76.8005 61.3016C71.9535 61.7259 67.0853 61.9274 62.249 62.4683C57.4126 63.0092 52.5232 63.391 47.6338 63.6244C43.3066 63.8365 38.8626 63.6243 34.5353 63.9743C36.1911 63.3839 37.7717 62.6008 39.2444 61.641ZM30.6323 66.944C32.1278 66.0319 34.1429 66.1168 35.8293 66.0531C37.9505 65.9789 39.9763 65.9577 42.0444 65.8516C46.1808 65.6289 50.3172 65.3743 54.4323 64.9713C58.5475 64.5683 62.3975 64.0168 66.396 63.6349C70.3944 63.2531 74.6157 63.0728 78.7096 62.5743C80.9156 62.3198 84.3626 62.3092 85.6672 60.2304C86.1944 62.582 86.5279 64.9728 86.6641 67.3789C86.6694 67.4424 86.6694 67.5063 86.6641 67.5698C85.2258 67.416 83.7752 67.416 82.3369 67.5698C80.1911 67.6 78.0487 67.7522 75.9202 68.0259C70.3944 68.7471 65.0914 70.444 59.4808 70.6456C53.8702 70.8471 48.4505 69.4471 42.8717 69.1395C38.0777 68.7582 33.2733 69.736 29.0096 71.9607C29.0096 70.1683 28.946 67.9728 30.6323 66.944ZM43.9853 70.4334C49.2884 70.9849 54.4535 72.0986 59.8944 71.8546C65.0702 71.6319 69.8217 69.6062 74.9126 69.044C77.0217 68.7542 79.1474 68.6018 81.2763 68.588C83.1131 68.4639 84.9579 68.5314 86.7808 68.7895C86.7808 69.9774 86.7808 71.1652 86.8763 72.3531C86.8763 73.0107 86.9929 73.6789 87.0672 74.3577C82.2944 74.7925 77.5217 73.6046 72.6853 74.0713C67.2975 74.6016 62.3444 77.4228 56.8929 77.6137C51.0914 77.8152 45.4066 76.8077 39.7005 75.8955C37.6641 75.5668 35.5641 74.9304 33.4854 75.2168C31.7551 75.4364 30.1149 76.1137 28.7338 77.1789C28.8611 75.588 28.9672 73.9971 29.0096 72.4274C33.7732 70.5865 38.906 69.9031 43.9853 70.4334ZM28.7126 83.0653C28.4363 81.3101 28.4113 79.5245 28.6384 77.7622C29.4657 77.5607 30.1869 77.1365 31.0141 76.9031C32.28 76.5045 33.6007 76.3076 34.9278 76.3198C37.5764 76.5846 40.2051 77.0203 42.7975 77.6243C47.8035 78.4728 53.1914 79.2683 58.2717 78.6849C63.352 78.1016 68.146 75.3546 73.3747 75.0365C77.9778 74.7501 82.5596 76.0334 87.1626 75.694C87.1785 76.0049 87.1785 76.3165 87.1626 76.6274C86.696 80.9971 82.5278 81.6971 78.9429 82.2062C75.3581 82.7153 72.0596 82.9486 68.5808 83.1925C64.9855 83.5335 61.3715 83.6363 57.7626 83.5001C54.2944 83.2986 50.8369 83.1395 47.3687 82.9274C44.0541 82.6817 40.7266 82.664 37.4096 82.8744C34.5194 83.1546 31.6123 83.2184 28.7126 83.0653ZM94.2157 68.6092C94.3144 72.6495 93.8866 76.6855 92.9429 80.6153C92.3066 82.8107 91.5111 84.0516 89.2308 84.7198C87.0897 85.2873 84.9039 85.6706 82.6975 85.8653C74.6157 86.7668 66.6187 87.4031 58.4838 87.594C54.4323 87.6789 50.3808 87.7213 46.3293 87.7213C42.2247 87.7213 37.7278 87.8486 33.7081 86.9365C31.8414 86.5228 29.8793 85.8759 29.0414 84.1259C34.2702 84.6137 39.5626 84.0622 44.8232 84.1259C50.9217 84.2107 57.052 84.9955 63.1611 84.7092C69.1146 84.4334 75.054 83.8855 80.9793 83.0653C83.1535 82.7683 85.5081 82.2486 87.0247 80.5198C87.6353 79.7327 88.0775 78.8285 88.3238 77.8633C88.5701 76.8981 88.6153 75.8926 88.4566 74.9092C88.255 72.8834 88.1702 70.8365 87.9793 68.8107C88.0659 68.6977 88.1065 68.556 88.0927 68.4142C88.0789 68.2725 88.0118 68.1413 87.905 68.0471C87.8414 67.4001 87.7566 66.7531 87.6611 66.1062C87.4025 64.1196 86.9405 62.1649 86.2823 60.2728C87.3429 58.841 86.8763 56.9001 88.0747 55.5213C88.5926 54.9843 89.2879 54.6538 90.0313 54.5914C90.7747 54.5289 91.5155 54.7388 92.1156 55.1819C93.0596 55.7865 93.0066 56.635 93.6217 57.4834C94.502 61.1001 94.2793 64.9289 94.2157 68.6092Z" fill="url(#paint0_linear_813_172)"/>
<path d="M53.141 23.1728C52.2183 16.3319 48.0501 9.60768 42.747 5.20616C37.444 0.804646 30.6031 -0.658994 23.7622 0.263733C19.9153 0.684143 16.2411 2.08661 13.0925 4.33646C10.3204 6.23187 7.84665 8.53045 5.75311 11.1562C3.52712 14.2015 1.97962 17.6885 1.21488 21.3823C0.450139 25.0762 0.485904 28.891 1.31977 32.5698C4.1728 45.2016 18.9683 52.0531 31.144 50.9607C34.4237 50.7401 37.6205 49.8331 40.5274 48.2984C43.4342 46.7636 45.9863 44.6354 48.0183 42.0516C50.114 39.4128 51.6903 36.4005 52.6637 33.1743C53.5374 29.9132 53.7001 26.5024 53.141 23.1728ZM49.0789 36.9607C46.141 42.444 41.4001 46.8455 35.291 48.4152C23.1152 51.544 7.1531 46.0289 3.17583 33.1001C1.16068 26.5562 2.9425 18.4743 6.82431 12.9486C11.1622 6.82888 17.3243 3.63647 24.4728 1.89708C29.0674 1.26225 33.7464 2.03902 37.8895 4.12435C43.1925 7.0092 47.2228 12.3865 49.6198 17.7956C50.96 20.8349 51.6068 24.1346 51.5132 27.455C51.4197 30.7754 50.5881 34.0334 49.0789 36.9925V36.9607Z" fill="url(#paint1_linear_813_172)"/>
<path d="M30.3698 14.784C29.4789 13.5218 28.6516 12.2279 27.7713 10.9658C27.3258 10.34 26.647 9.72486 25.8834 10.2764C25.0227 11.2009 24.545 12.4177 24.547 13.6809C24.4511 14.3381 24.5533 15.0089 24.8404 15.6078C25.1276 16.2066 25.5867 16.7063 26.1592 17.043C26.2361 17.0881 26.3258 17.1064 26.4143 17.0951C26.5027 17.0837 26.5849 17.0434 26.648 16.9804C26.711 16.9173 26.7514 16.8351 26.7627 16.7466C26.7741 16.6582 26.7558 16.5685 26.7107 16.4915C26.3159 15.6018 26.0756 14.6513 26.0001 13.6809C25.9894 13.1154 26.0755 12.5523 26.2546 12.0158L26.4455 11.4006C26.6895 11.1249 26.8804 11.1779 26.997 11.5809C27.5021 12.2403 27.9358 12.9513 28.291 13.7021C28.6756 14.3523 29.1709 14.9302 29.7546 15.4097C30.1152 15.6536 30.6137 15.134 30.3698 14.784Z" fill="url(#paint2_linear_813_172)"/>
<path d="M43.3303 12.4183C42.2697 11.2729 39.7879 11.1668 38.2925 10.9653C36.6401 10.7961 34.978 10.743 33.3182 10.8062C33.6894 10.2653 34.2728 9.68199 34.5167 9.32138C35.1196 8.50815 35.6351 7.63362 36.0546 6.7123C36.2349 6.24563 35.7894 5.88502 35.3864 5.84259C34.4578 5.91853 33.5671 6.24472 32.8091 6.78652C31.7485 7.36985 30.6879 8.23955 29.5637 8.90773C29.5637 6.85015 29.4364 4.18804 27.8985 2.91531C27.8022 2.82509 27.6752 2.7749 27.5432 2.7749C27.4113 2.7749 27.2842 2.82509 27.1879 2.91531C25.9046 3.92289 25.3955 6.27745 24.897 8.00624C23.6057 7.07641 22.1733 6.36021 20.6546 5.88503C20.5 5.84566 20.3361 5.86789 20.1976 5.94704C20.0591 6.0262 19.9567 6.15608 19.9122 6.30926C19.5834 7.99563 21.6622 9.67138 22.797 11.0077C22.4046 10.9123 22.0228 10.8062 21.6197 10.7426C20.5898 10.656 19.5559 10.6277 18.5228 10.6578C16.5182 10.5305 14.5349 10.0002 12.5303 9.79867C12.0106 9.74564 11.9152 10.4668 12.2864 10.7108C13.6016 11.5593 14.5879 12.832 16.041 13.4684C17.3331 13.9828 18.6829 14.3389 20.0606 14.529C19.7106 14.6774 19.3713 14.8365 19 15.0062C17.8191 15.6092 16.7181 16.3574 15.7228 17.2335C14.654 18.1252 13.7057 19.152 12.9016 20.288C12.2522 21.0739 11.8467 22.0324 11.7349 23.0456C11.7377 23.1549 11.7685 23.2616 11.8245 23.3555C11.8805 23.4494 11.9598 23.5273 12.0547 23.5817C12.1495 23.636 12.2568 23.665 12.3661 23.6659C12.4754 23.6667 12.5831 23.6394 12.6788 23.5865C14.344 22.7805 15.8607 21.6881 17.5258 20.8608C18.8521 20.2006 20.2196 19.6267 21.6197 19.1426C20.3042 20.7308 19.2548 22.5217 18.5122 24.4456C17.7379 26.2911 15.9243 30.4168 17.4516 32.3259C18.9788 34.235 20.9728 30.2577 21.5031 29.3562C22.5637 27.6062 23.6243 25.8774 24.6849 24.138C25.3904 22.7762 26.184 21.4618 27.0606 20.2032C27.0606 20.6805 26.9864 21.2108 27.0606 21.5926C27.1766 22.4727 27.3502 23.3443 27.5803 24.2017C27.7606 24.9547 27.9409 25.7077 28.1425 26.4502C28.5349 27.9668 28.9697 30.5335 30.2637 31.5623C32.2788 33.1214 32.7031 29.1335 32.841 28.0729C33.0372 26.2787 33.0372 24.4686 32.841 22.6744C32.6841 21.5381 32.4322 20.417 32.0879 19.3229C34.2399 19.8772 36.2959 20.7533 38.1864 21.9214C39.2973 22.5495 40.2653 23.4019 41.0288 24.4244C41.3576 24.8911 41.4319 25.3259 42.0364 25.4108C42.1424 25.4374 42.2534 25.4362 42.3588 25.4075C42.4642 25.3787 42.5604 25.3233 42.6382 25.2466C42.716 25.1699 42.7727 25.0745 42.8029 24.9695C42.8331 24.8645 42.8358 24.7535 42.8106 24.6472C42.2848 22.4053 41.1033 20.3709 39.4167 18.8032C38.6606 18.0128 37.8254 17.302 36.9243 16.682C36.3303 16.279 35.0894 15.9395 34.3576 15.4729C35.9273 14.5714 38.3561 14.4653 39.9788 14.2532C41.0394 14.1047 42.8849 14.2532 43.447 13.1926C43.5084 13.0669 43.5301 12.9256 43.5093 12.7873C43.4884 12.649 43.426 12.5203 43.3303 12.4183ZM39.1622 13.129C38.1758 13.2668 37.2 13.4153 36.2349 13.6274C35.0292 13.8079 33.8839 14.2733 32.894 14.985C32.7936 15.0822 32.7286 15.2102 32.7094 15.3486C32.6902 15.487 32.7178 15.6278 32.7879 15.7486C33.0358 16.0959 33.3781 16.3646 33.7743 16.5229C35.042 17.0863 36.2383 17.7984 37.3379 18.6441C38.4872 19.5993 39.4944 20.7135 40.3288 21.9532C39.668 21.423 38.9577 20.9577 38.2076 20.5638C36.1025 19.3683 33.8281 18.4993 31.4622 17.9865C31.3611 17.9616 31.2553 17.9631 31.155 17.9911C31.0548 18.019 30.9634 18.0724 30.8898 18.146C30.8162 18.2196 30.7628 18.311 30.7349 18.4112C30.707 18.5115 30.7054 18.6173 30.7303 18.7183C30.8682 19.7789 31.3455 20.7017 31.494 21.7305C31.6863 23.1893 31.7572 24.6615 31.7061 26.132C31.665 27.1866 31.5409 28.2363 31.3349 29.2714L31.1864 30.0032C31.1864 30.7103 31.0697 30.8481 30.8364 30.4168C30.3909 30.1623 30.0834 28.9002 29.9243 28.4547C29.5 27.2774 29.1819 26.0577 28.8637 24.8381C28.487 23.6857 28.2241 22.4992 28.0788 21.2956C28.0152 20.4153 28.3334 19.5987 27.8349 18.8138C27.7553 18.6797 27.6261 18.5823 27.4753 18.5426C27.3245 18.5029 27.1641 18.5241 27.0288 18.6017C25.5864 19.6623 24.7061 21.7835 23.7516 23.2365C22.2031 25.6547 20.2834 28.0623 18.9364 30.5865C18.6606 31.1062 18.9364 31.6471 18.5652 30.9577C18.194 30.2683 18.65 29.4305 18.7773 28.7623C19.0338 27.5027 19.3884 26.2651 19.8379 25.0608C20.7819 22.6002 22.0652 20.0017 24.197 18.3683C24.6743 17.9971 24.4409 17.0956 23.7516 17.3077C21.6483 17.9447 19.5898 18.7206 17.5894 19.6305C16.1364 20.2987 14.7788 21.1153 13.347 21.8578C13.7713 21.1596 14.2691 20.5089 14.8319 19.9168C15.7968 18.8366 16.8903 17.8784 18.0879 17.0638C19.0842 16.3649 20.1926 15.8412 21.3652 15.5153C22.0652 15.3562 22.5425 15.3456 22.9985 14.7411C23.0473 14.6552 23.0762 14.5595 23.0829 14.4609C23.0896 14.3624 23.0741 14.2636 23.0374 14.1719C23.0007 14.0802 22.9439 13.9979 22.871 13.9312C22.7982 13.8645 22.7113 13.815 22.6167 13.7865C20.6864 13.3941 18.65 13.4153 16.7834 12.7259C15.7331 12.3268 14.7842 11.7002 14.0046 10.8911C16.9646 11.4501 19.9776 11.6777 22.9879 11.5699C23.0337 11.6376 23.0981 11.6907 23.1734 11.7227C23.2487 11.7547 23.3316 11.7642 23.4122 11.7502H23.5925C23.688 11.7471 23.7812 11.7196 23.8632 11.6705C23.9452 11.6213 24.0134 11.5521 24.0611 11.4692C24.1089 11.3864 24.1348 11.2928 24.1363 11.1972C24.1378 11.1016 24.1149 11.0072 24.0697 10.9229C23.6137 10.2547 23.0091 9.71379 22.5 9.07743C22.0188 8.54524 21.5824 7.97411 21.1955 7.36987C22.4713 7.98174 23.6982 8.69091 24.8652 9.49108C24.9534 9.53969 25.0512 9.56806 25.1517 9.57417C25.2522 9.58028 25.3528 9.56396 25.4462 9.52639C25.5396 9.48883 25.6235 9.43097 25.6918 9.35698C25.76 9.283 25.811 9.19477 25.841 9.09866C26.1167 8.20775 26.3925 7.31685 26.647 6.41533C26.7425 6.06533 26.8273 5.69412 26.9334 5.35472C27.0394 5.01533 27.0288 3.83806 27.6228 4.29412C28.2167 4.75018 28.0788 6.05472 28.1637 6.74412C28.275 7.77262 28.2963 8.80886 28.2273 9.84107C28.2275 9.9381 28.2498 10.0338 28.2926 10.1209C28.3355 10.208 28.3976 10.2841 28.4744 10.3435C28.5511 10.4028 28.6405 10.4438 28.7355 10.4634C28.8306 10.4829 28.9288 10.4805 29.0228 10.4562C30.0134 9.97643 30.9608 9.41223 31.8546 8.76988C32.3637 8.47291 33.1803 7.88955 33.9758 7.51834C33.0319 8.81228 31.6955 9.98955 31.5152 11.4638C31.5179 11.6542 31.5948 11.8361 31.7295 11.9708C31.8641 12.1054 32.046 12.1823 32.2364 12.185C33.8697 12.185 35.4182 12.0683 37.1152 12.238C38.0159 12.3213 38.9117 12.4523 39.7985 12.6305C40.1591 12.7047 40.7849 12.7578 41.347 12.8744C40.5516 13.0653 39.4379 13.0971 39.1622 13.129Z" fill="url(#paint3_linear_813_172)"/>
<defs>
<linearGradient id="paint0_linear_813_172" x1="27.1005" y1="64.1334" x2="96.199" y2="64.1334" gradientUnits="userSpaceOnUse">
<stop stop-color="#FF9600"/>
<stop offset="1" stop-color="#FF007B"/>
</linearGradient>
<linearGradient id="paint1_linear_813_172" x1="0.640978" y1="25.538" x2="53.4486" y2="25.538" gradientUnits="userSpaceOnUse">
<stop stop-color="#FF9600"/>
<stop offset="1" stop-color="#FF007B"/>
</linearGradient>
<linearGradient id="paint2_linear_813_172" x1="24.547" y1="13.5749" x2="30.4334" y2="13.5749" gradientUnits="userSpaceOnUse">
<stop stop-color="#FF9600"/>
<stop offset="1" stop-color="#FF007B"/>
</linearGradient>
<linearGradient id="paint3_linear_813_172" x1="11.7349" y1="17.8274" x2="43.5106" y2="17.8274" gradientUnits="userSpaceOnUse">
<stop stop-color="#FF9600"/>
<stop offset="1" stop-color="#FF007B"/>
</linearGradient>
</defs>
</svg>
